<svg version="1.1" id="Layer_1" xmlns="http://www.w3.org/2000/svg" xmlns:xlink="http://www.w3.org/1999/xlink" x="0px" y="0px"
	 width="100%" viewBox="0 0 687 244" enable-background="new 0 0 687 244" xml:space="preserve">
<path fill="#FFFFFF" opacity="1.000000" stroke="none" 
	d="
M1.000000,141.000000 
	C1.000000,94.390419 1.000000,47.780838 1.000000,1.000000 
	C73.354141,1.000000 145.708405,1.000000 218.531342,1.463702 
	C219.000000,5.530407 219.000000,9.133410 219.000000,13.000037 
	C223.739487,13.000037 227.888840,13.179006 232.015930,12.952284 
	C236.614548,12.699659 238.151016,14.730220 238.061615,19.166481 
	C237.863617,28.990519 237.856873,38.823982 238.041107,48.648552 
	C238.218018,58.082043 242.337692,65.570770 250.077759,71.010323 
	C261.970520,79.368294 275.715668,81.668770 289.726288,82.969475 
	C295.732330,83.527046 301.769409,83.750328 307.997467,84.138268 
	C307.997467,89.961769 308.153137,95.278923 307.947754,100.582100 
	C307.786041,104.757950 306.402954,107.759163 301.094604,107.095016 
	C297.214874,106.609612 293.225586,107.000000 289.325897,107.000000 
	C289.325897,111.645798 289.325897,115.705116 289.325897,119.635643 
	C289.799835,119.810555 289.947815,119.912987 290.095886,119.913086 
	C337.735657,119.946564 385.378601,120.280190 433.013153,119.794647 
	C445.735962,119.664963 455.375397,110.992752 454.941284,96.925056 
	C454.635956,87.029869 448.353180,81.210327 439.856293,76.874695 
	C440.729828,76.305275 441.464569,75.736938 442.274536,75.312035 
	C451.808075,70.310730 455.382507,62.374973 453.020996,51.825901 
	C451.413269,44.643890 442.112305,36.621315 432.808350,36.894840 
	C418.994415,37.300941 405.159698,37.007767 391.333862,36.988129 
	C389.915924,36.986115 388.498260,36.819984 387.000336,36.724922 
	C387.000336,30.227846 387.079224,24.231541 386.971954,18.238564 
	C386.903259,14.400479 388.659393,12.858152 392.410339,12.969365 
	C396.845428,13.100863 401.287415,13.000246 406.000000,13.000246 
	C406.000000,8.611302 406.000000,4.805651 406.000000,1.000000 
	C499.903168,1.000000 593.806335,1.000000 688.000000,1.000000 
	C688.000000,48.353832 688.000000,95.708260 687.661865,143.437012 
	C685.459778,141.946518 683.243286,139.906921 680.826477,142.178391 
	C679.313965,143.599976 678.104858,146.227310 678.173889,148.265686 
	C678.319519,152.565842 683.232605,153.336899 688.000000,150.000000 
	C688.000000,181.631912 688.000000,213.263840 688.000000,245.000000 
	C586.979126,245.000000 485.958221,245.000000 384.587830,244.657211 
	C384.830933,243.839722 385.713593,243.487015 385.972321,242.871841 
	C389.384674,234.758881 392.709198,226.608978 396.192413,218.135712 
	C393.783081,218.135712 392.151947,218.135712 390.435516,218.135712 
	C389.832642,220.055099 389.312592,221.904984 388.666595,223.709824 
	C388.082825,225.340851 387.361420,226.922607 386.488892,229.040085 
	C381.931732,215.735107 383.792175,217.901840 377.169373,218.370392 
	C378.104065,220.527878 379.082184,222.581177 379.887421,224.700211 
	C380.745789,226.958923 381.305878,229.335861 382.232727,231.562729 
	C384.775391,237.672089 383.461853,240.368515 377.000000,241.596817 
	C377.000000,242.705704 377.000000,243.852844 377.000000,245.000000 
	C251.782913,245.000000 126.565826,245.000000 1.000000,245.000000 
	C1.000000,213.313293 1.000000,181.625305 1.382963,149.598389 
	C4.190924,149.939697 5.270646,151.173294 5.102005,154.042084 
	C4.760305,159.854782 4.926926,165.702835 5.017889,171.534210 
	C5.144658,179.661011 9.318437,187.036789 15.442675,188.636169 
	C19.663870,189.738541 24.206783,189.859497 28.614834,189.941895 
	C36.904228,190.096802 43.664345,184.949646 44.854084,176.623077 
	C45.921982,169.149185 45.648777,161.485626 46.020855,153.908386 
	C46.082684,152.649185 46.185329,150.414734 46.663898,150.301651 
	C52.649132,148.887329 48.986553,144.477798 50.056366,141.244370 
	C43.176907,141.244370 36.767418,141.244370 30.118896,141.244370 
	C30.051342,145.417694 28.313066,150.037491 34.999382,150.277390 
	C34.999382,158.174698 35.066605,165.664658 34.971897,173.152542 
	C34.922256,177.077576 30.683605,180.900040 26.589190,180.977234 
	C22.274170,181.058563 18.100058,177.501816 18.035461,173.366440 
	C17.916019,165.720215 18.001295,158.070786 18.001295,150.529266 
	C23.650057,148.673706 23.718388,148.521835 22.363386,141.000000 
	C15.281932,141.000000 8.140966,141.000000 1.000000,141.000000 
M551.000000,176.319778 
	C551.000000,171.573517 551.000000,166.827255 551.000000,162.240402 
	C555.051086,162.240402 558.327576,162.240402 561.795166,162.240402 
	C561.795166,168.416092 561.795166,174.356216 561.795166,180.560837 
	C556.119568,181.323608 558.332214,185.386246 558.070007,188.845673 
	C565.190796,188.845673 571.807068,188.845673 578.399414,188.845673 
	C580.138733,181.397247 580.138733,181.397247 574.263977,180.556488 
	C574.263977,174.822876 574.263977,169.078079 574.263977,163.194000 
	C576.921814,163.040405 579.335205,162.900925 581.680481,162.765381 
	C581.680481,159.666000 581.680481,156.934326 581.680481,153.794495 
	C578.949585,153.794495 576.539246,153.794495 574.148315,153.794495 
	C574.041260,147.726120 575.518677,146.493393 581.194885,146.871429 
	C582.390564,146.951065 584.359680,146.116486 584.763489,145.181229 
	C585.629211,143.175903 585.706116,140.830017 586.125305,138.516830 
	C579.707336,136.176010 572.903809,135.317017 568.051819,139.356247 
	C564.274170,142.501053 562.838379,148.458862 560.075317,153.711121 
	C557.977905,153.711121 554.563843,153.711121 551.007874,153.711121 
	C551.056702,149.585236 550.717224,145.592575 556.729431,146.841599 
	C557.282898,146.956589 558.331604,146.244263 558.652100,145.648224 
	C559.857971,143.405212 560.857544,141.051285 561.937012,138.733429 
	C550.401733,134.254593 538.823242,137.183136 538.664307,153.691833 
	C537.166992,153.931274 535.633728,154.176483 534.219849,154.402588 
	C534.219849,157.369614 534.219849,159.981476 534.219849,162.608810 
	C535.940308,162.931793 537.463684,163.217773 538.779907,163.464874 
	C538.779907,169.503372 538.779907,175.130753 538.779907,180.863388 
	C531.820190,180.712692 534.384155,185.294495 534.148499,188.679718 
	C541.343994,188.679718 548.078735,188.679718 554.820435,188.679718 
	C554.820435,186.071014 554.820435,183.783981 554.820435,181.496964 
	C554.316223,181.645844 553.812073,181.794724 553.307861,181.943604 
	C552.538574,180.384583 551.769287,178.825562 551.000000,176.319778 
M473.370239,141.999863 
	C464.012726,141.528595 454.655243,141.057312 445.462891,140.594360 
	C444.298187,146.352890 444.377319,150.508148 450.780579,150.380066 
	C450.780579,160.758759 450.780579,170.715652 450.780579,180.642410 
	C444.463806,181.393555 444.327454,181.612869 445.629608,188.999619 
	C446.547668,188.999619 447.522095,188.999664 448.496521,188.999603 
	C457.162170,188.999146 465.871185,189.501495 474.472992,188.760269 
	C478.110046,188.446869 482.344788,186.294739 484.870789,183.620789 
	C490.813568,177.329941 488.299194,169.601929 479.365112,164.429352 
	C484.518555,161.749023 486.583771,157.147629 485.781708,151.803299 
	C484.849274,145.590256 480.397583,142.562088 473.370239,141.999863 
M325.046417,187.276581 
	C324.699127,189.166931 325.004089,191.862137 323.869812,192.781357 
	C321.449860,194.742493 318.283722,195.782867 315.293579,197.264771 
	C315.548950,198.086075 315.946777,199.479248 316.414001,200.848709 
	C318.499756,206.962036 318.772430,206.990723 325.149506,205.059494 
	C330.900726,203.317810 333.881866,199.025024 335.949158,193.880127 
	C339.746857,184.428696 343.313751,174.883041 347.227448,165.480988 
	C347.993622,163.640427 349.896515,162.273056 351.735657,160.157715 
	C351.735657,158.876114 351.735657,156.611053 351.735657,154.283829 
	C345.733124,154.283829 339.998260,154.283829 333.900299,154.283829 
	C334.858215,157.445923 331.439209,161.920715 337.520325,162.472534 
	C335.890320,166.993286 334.315582,171.360733 332.577545,176.181061 
	C330.950439,171.325943 329.516602,167.047470 328.082764,162.768997 
	C328.559875,162.868698 329.036987,162.968384 329.514099,163.068085 
	C330.167542,160.258453 330.820953,157.448822 331.561890,154.262817 
	C324.457062,154.262817 318.390961,154.262817 312.163574,154.262817 
	C312.163574,156.806015 312.163574,159.089691 312.163574,161.373367 
	C314.247986,162.336639 315.923706,163.616226 316.627441,165.301666 
	C319.551300,172.304199 322.182007,179.429153 325.046417,187.276581 
M66.000084,177.267136 
	C66.000328,174.435822 66.043564,171.603683 65.990662,168.773361 
	C65.912704,164.603012 68.932899,163.311096 72.069641,163.137695 
	C75.556908,162.944946 76.068420,165.746231 76.028175,168.696548 
	C75.937912,175.314240 75.999908,181.933990 75.999908,188.763168 
	C81.507278,188.763168 86.577354,188.763168 92.427704,188.763168 
	C91.885246,186.106613 91.938980,182.143387 90.850052,181.799606 
	C87.002617,180.584961 88.083199,177.938614 88.020424,175.548721 
	C87.937355,172.386490 88.289307,169.188660 87.946434,166.061829 
	C86.826279,155.846344 83.466553,151.928040 73.709221,153.131119 
	C71.112167,153.451324 68.695374,155.233505 66.191048,156.346558 
	C66.049980,155.425385 65.883675,154.339462 65.667244,152.926163 
	C60.382725,153.433273 55.235382,153.927200 50.226879,154.407822 
	C50.226879,157.040146 50.226879,159.325912 50.226879,161.605484 
	C51.961338,161.933945 53.477654,162.221085 54.731487,162.458527 
	C54.731487,168.848526 54.731487,174.794632 54.731487,180.741577 
	C53.052319,180.944214 51.640480,181.114578 50.341507,181.271317 
	C50.341507,184.009979 50.341507,186.401245 50.341507,188.646515 
	C57.420212,188.646515 64.152863,188.646515 71.037384,188.646515 
	C70.565277,185.219986 72.835663,180.741089 66.730095,180.759552 
	C66.489594,180.760284 66.244041,179.086792 66.000084,177.267136 
M518.944824,189.999756 
	C520.941833,189.999817 523.053101,190.409546 524.905884,189.892654 
	C527.053955,189.293381 530.089600,188.344650 530.764771,186.724472 
	C532.218323,183.236465 530.085876,180.953537 525.871460,180.702423 
	C525.871460,171.431244 525.871460,162.339569 525.871460,152.911560 
	C520.421387,153.422455 515.413879,153.891876 510.204529,154.380203 
	C510.204529,156.725067 510.204529,159.002869 510.204529,161.484604 
	C511.426544,161.855881 512.721680,162.249390 514.000000,162.637787 
	C514.000000,166.626343 513.709839,170.315887 514.075256,173.939316 
	C514.508972,178.239731 512.115723,180.517212 508.639587,180.513474 
	C505.253784,180.509842 504.953491,177.155411 504.979919,174.228088 
	C505.042542,167.278595 505.000031,160.328140 505.000031,152.928589 
	C499.384644,153.447327 494.258759,153.920837 489.200439,154.388123 
	C489.200439,156.983139 489.200439,159.271072 489.200439,161.559006 
	C489.732788,161.409073 490.265137,161.259125 490.797485,161.109192 
	C491.531616,162.674744 492.774445,164.200897 492.899292,165.813614 
	C493.206635,169.783890 492.614227,173.838898 493.073486,177.779434 
	C494.389771,189.073380 496.815765,190.685608 507.044647,189.866669 
	C509.630707,189.659607 512.089111,187.857864 514.166992,186.975403 
	C515.426270,187.949631 516.749817,188.973541 518.944824,189.999756 
M387.473511,153.889328 
	C379.794281,151.457779 371.557648,153.516418 366.926300,159.174561 
	C368.448029,161.155121 370.000153,163.175217 371.496613,165.122849 
	C381.017303,160.467972 384.953644,161.185303 384.724426,166.599670 
	C377.843323,168.283844 369.294037,167.371643 366.318115,175.845993 
	C364.905731,179.867966 365.143921,184.846710 369.512817,187.961945 
	C374.983612,191.862869 380.429688,190.103088 385.668396,187.550766 
	C386.068054,188.443085 386.367645,189.749817 386.700714,189.758408 
	C390.667297,189.860764 394.682007,190.110062 398.594391,189.613556 
	C401.332581,189.266068 402.414490,182.484055 399.862701,181.690536 
	C395.956390,180.475769 397.107025,177.890762 397.029633,175.539566 
	C396.914917,172.052811 397.083405,168.557068 396.981750,165.069504 
	C396.788086,158.423859 394.222382,155.204575 387.473511,153.889328 
M647.512024,157.992065 
	C638.485840,167.153976 642.006470,181.305130 648.188293,186.507187 
	C653.862122,191.281799 666.034973,191.222122 671.292908,187.189987 
	C678.000366,182.046280 680.512268,172.221298 677.446350,163.850281 
	C673.326477,152.601501 657.689514,149.227402 647.512024,157.992065 
M585.514893,158.006882 
	C586.769531,160.492447 588.024170,162.978027 589.263855,165.433914 
	C598.924072,160.452103 601.649048,160.808609 602.815247,166.525589 
	C595.992859,168.526550 587.180725,167.071686 584.397034,176.259155 
	C583.129578,180.442245 583.397827,184.898834 587.466125,187.909592 
	C592.936035,191.957596 598.401489,190.027359 602.951843,187.917465 
	C604.364075,188.844940 605.205688,189.839737 606.125122,189.917725 
	C608.766724,190.141739 611.474976,190.249969 614.085999,189.889542 
	C615.453247,189.700806 617.521423,188.642044 617.774719,187.608871 
	C618.254944,185.649963 618.110535,181.772888 617.430725,181.586136 
	C613.537598,180.516663 615.207092,177.658707 615.064758,175.574631 
	C614.827332,172.098724 615.203125,168.579941 614.949158,165.106384 
	C614.620483,160.611664 613.672302,155.927368 608.763977,154.405151 
	C600.856750,151.952866 592.988586,151.879456 585.514893,158.006882 
M191.999771,170.498688 
	C191.058868,164.413834 190.939285,157.902512 184.205170,154.700867 
	C177.380875,151.456360 168.156067,153.094879 162.644363,157.717010 
	C157.458878,162.065567 156.986847,172.475677 158.915726,179.396973 
	C159.548141,181.666275 160.706802,184.300980 162.476929,185.652664 
	C170.211288,191.558655 178.808289,191.067886 187.548553,188.103760 
	C189.976334,187.280396 190.743240,185.983337 189.237122,183.638489 
	C188.298340,182.176910 187.591248,180.566498 186.784790,179.031662 
	C177.417572,183.727875 173.055359,182.608719 170.545975,174.999405 
	C176.412064,174.999405 182.221115,174.926376 188.026917,175.032257 
	C190.668533,175.080414 192.245453,174.318710 191.999771,170.498688 
M255.953491,171.737213 
	C250.282135,169.153122 244.610779,166.569046 238.739624,163.893921 
	C244.146500,160.065781 247.287079,160.770203 248.606140,165.647125 
	C251.378021,165.647125 254.105682,165.647125 256.999237,165.647125 
	C256.999237,162.813614 257.332062,160.266495 256.872223,157.871552 
	C256.603943,156.474319 255.218353,154.406784 254.075317,154.218262 
	C249.563324,153.474182 244.934860,152.944611 240.374802,153.095749 
	C232.994675,153.340378 229.130051,156.948898 228.088882,163.644165 
	C227.307800,168.666962 231.033768,173.165390 237.761536,175.331161 
	C240.882797,176.335938 244.000763,177.350967 247.120209,178.361343 
	C247.145706,178.974808 247.171204,179.588272 247.196716,180.201736 
	C244.897079,180.696884 242.518402,181.783630 240.324081,181.490494 
	C238.715683,181.275620 237.349197,179.249817 235.046005,177.345963 
	C233.636749,177.345963 230.908279,177.345963 228.000076,177.345963 
	C228.000076,178.842117 228.176483,180.025467 227.970184,181.137848 
	C226.964844,186.558838 229.150009,189.546677 234.645599,189.791321 
	C239.117050,189.990356 243.704987,190.507996 248.059418,189.786621 
	C256.980927,188.308640 260.394348,180.483932 255.953491,171.737213 
M145.932343,180.401855 
	C147.805206,175.584564 149.488770,170.680389 151.641266,165.991470 
	C152.540070,164.033554 154.435822,162.533295 155.878281,160.824951 
	C156.143784,161.026306 156.409271,161.227676 156.674774,161.429031 
	C156.674774,159.031036 156.674774,156.633026 156.674774,154.329880 
	C150.611084,154.329880 144.876617,154.329880 138.822723,154.329880 
	C139.902451,157.374313 136.742081,161.401535 142.054260,162.694427 
	C140.552887,166.721909 139.063446,170.717377 137.220261,175.661758 
	C135.567413,171.079987 134.213516,167.333481 132.866562,163.584473 
	C132.710358,163.149704 132.592422,162.701187 132.456741,162.259048 
	C137.608963,160.725037 133.865952,156.986374 134.934387,154.299622 
	C128.357452,154.299622 122.292549,154.299622 116.139893,154.299622 
	C116.139893,156.891815 116.139893,159.183990 116.139893,160.835403 
	C118.024467,162.113800 120.208252,162.786743 120.828033,164.163681 
	C122.876465,168.714478 124.432831,173.494736 126.045952,178.231903 
	C129.777725,189.190842 129.746338,189.203308 141.606735,188.959106 
	C141.926590,188.952530 142.243546,188.804901 142.570694,188.720764 
	C143.531998,186.162125 144.493286,183.603470 145.932343,180.401855 
M406.000000,173.449600 
	C406.000000,174.780060 405.651550,176.231644 406.064148,177.418701 
	C407.401031,181.264847 407.986877,186.859024 410.748657,188.401123 
	C415.871674,191.261749 422.306488,191.442123 428.194519,187.674072 
	C427.741241,186.672668 427.238403,186.001938 427.143829,185.277878 
	C426.689911,181.803162 426.503418,178.277740 421.261261,180.717178 
	C420.816040,180.924347 418.277496,178.524551 418.163818,177.210236 
	C417.767792,172.631119 418.010651,167.996750 418.010651,162.936142 
	C420.865082,162.936142 423.264343,162.936142 425.710663,162.936142 
	C425.710663,159.738007 425.710663,157.008850 425.710663,154.165878 
	C423.024811,154.027252 420.619995,153.903137 417.772278,153.756149 
	C417.772278,150.296143 417.772278,147.231720 417.772278,144.374023 
	C413.564240,144.374023 409.836273,144.374023 405.840057,144.374023 
	C405.840057,147.701340 405.840057,150.653580 405.840057,153.599930 
	C404.053894,153.932617 402.535217,154.215485 401.263367,154.452377 
	C401.263367,157.484665 401.263367,160.092300 401.263367,162.812424 
	C402.919250,162.955017 404.326874,163.076248 406.000000,163.220322 
	C406.000000,166.544647 406.000000,169.513870 406.000000,173.449600 
M637.000000,145.674835 
	C637.239746,142.953720 637.479553,140.232605 637.749573,137.168304 
	C632.226379,137.563171 626.757080,137.954178 621.149536,138.355087 
	C621.149536,140.837036 621.149536,143.118195 621.149536,145.695908 
	C622.424133,145.902206 623.623474,146.096298 624.999329,146.318970 
	C624.999329,157.132874 625.014526,167.603821 624.972961,178.074524 
	C624.969299,178.997574 624.718201,180.672272 624.373474,180.728928 
	C618.790833,181.646667 621.719788,185.714905 620.968445,188.769318 
	C628.111023,188.769318 634.853455,188.769318 641.634399,188.769318 
	C642.480164,184.468323 642.905579,180.618912 637.000000,180.494751 
	C637.000000,168.935455 637.000000,157.784897 637.000000,145.674835 
M310.786011,187.593018 
	C309.638947,185.005341 308.491852,182.417679 307.200470,179.504501 
	C301.839478,183.182922 300.603424,179.336609 300.160095,175.853638 
	C299.628326,171.675995 300.034485,167.378967 300.034485,163.176666 
	C303.450684,163.012177 306.189240,162.880310 308.766876,162.756210 
	C308.766876,159.617920 308.766876,157.006699 308.766876,153.946762 
	C305.811859,153.946762 303.080322,153.946762 299.895294,153.946762 
	C299.895294,150.425858 299.895294,147.361984 299.895294,144.309921 
	C296.029144,144.309921 292.637756,144.309921 288.967194,144.309921 
	C288.967194,147.561996 288.967194,150.507111 288.967194,153.655884 
	C287.191650,153.919373 285.663544,154.146149 284.198975,154.363480 
	C284.198975,157.323837 284.198975,159.932861 284.198975,162.637207 
	C285.883698,162.934875 287.408752,163.204346 289.000183,163.485535 
	C289.000183,169.459930 288.950592,175.105286 289.016113,180.749298 
	C289.067139,185.145172 292.402832,189.816727 296.352020,189.834122 
	C300.983765,189.854553 305.620331,188.773010 310.786011,187.593018 
M200.000000,167.625153 
	C200.000000,171.937119 200.000000,176.249069 200.000000,180.821213 
	C192.976608,180.460388 195.390594,185.145935 194.974609,188.746429 
	C202.857468,188.746429 210.272629,188.746429 217.635590,188.746429 
	C218.580643,183.984787 218.760956,179.954483 212.000122,180.853683 
	C212.000122,177.077637 212.184753,173.748840 211.956497,170.448624 
	C211.621414,165.603821 215.696579,162.745544 218.432846,163.511810 
	C225.211014,165.409927 223.687317,160.267029 224.958206,157.425873 
	C225.341751,156.568375 225.321060,155.530060 225.528305,154.326111 
	C220.788696,151.564468 216.467407,152.687744 212.307907,157.020950 
	C212.066147,155.390091 211.897507,154.252533 211.707245,152.969070 
	C205.963638,153.461746 200.610931,153.920898 195.151276,154.389221 
	C195.151276,156.864517 195.151276,159.147079 195.151276,161.686737 
	C196.775970,161.910492 198.313797,162.122284 200.000000,162.354523 
	C200.000000,164.030457 200.000000,165.349075 200.000000,167.625153 
M263.603577,161.985153 
	C265.506592,161.899200 267.161682,161.788956 267.054321,164.664322 
	C266.856873,169.950378 266.997986,175.249069 266.997986,180.849594 
	C259.955994,180.379837 262.369781,185.105270 262.015686,188.615234 
	C269.559479,188.615234 276.724274,188.615234 283.837891,188.615234 
	C284.275726,184.367950 284.949005,180.343246 278.833130,180.630707 
	C278.833130,171.221359 278.833130,162.298676 278.833130,152.983124 
	C273.066528,153.470856 267.615082,153.931946 261.713226,154.431122 
	C262.064697,157.105133 262.378693,159.493881 263.603577,161.985153 
M113.000000,167.493805 
	C113.000000,162.717468 113.000000,157.941132 113.000000,152.975220 
	C107.019196,153.471909 101.661057,153.916870 96.293983,154.362595 
	C96.293983,156.954132 96.293983,159.361038 96.293983,161.727859 
	C97.994370,161.954056 99.399300,162.140961 100.816719,162.329529 
	C100.816719,168.609467 100.816719,174.556290 100.816719,180.654099 
	C99.137520,180.936813 97.607285,181.194443 96.233963,181.425644 
	C96.233963,184.047165 96.233963,186.321640 96.233963,188.745087 
	C103.212631,188.745087 109.955513,188.745087 117.662605,188.745087 
	C116.837280,185.925247 116.762253,182.142685 115.326111,181.525070 
	C112.659744,180.378372 113.028465,178.834167 113.008194,176.983490 
	C112.977180,174.151764 113.000015,171.319443 113.000000,167.493805 
M462.060608,226.382065 
	C463.855103,228.907578 465.445526,231.618530 467.513855,233.895264 
	C468.960205,235.487305 471.060059,236.485611 473.742676,238.360367 
	C473.742676,228.156769 473.742676,219.729767 473.742676,211.292175 
	C472.078400,211.292175 470.690826,211.292175 468.778809,211.292175 
	C468.778809,216.224533 468.778809,220.887222 468.778809,225.412872 
	C462.428009,221.751541 462.751587,211.376648 453.079315,210.806137 
	C453.079315,219.737320 453.073944,227.886612 453.102539,236.035797 
	C453.103516,236.309235 453.447449,236.581467 453.775696,237.067902 
	C455.057190,236.936218 456.455444,236.792511 458.169739,236.616333 
	C458.169739,231.391434 458.169739,226.512711 458.169739,221.257370 
	C459.660614,222.994705 460.802185,224.324997 462.060608,226.382065 
M517.075012,218.447281 
	C516.089539,221.316895 515.104004,224.186508 513.795715,227.996063 
	C512.909119,224.723618 512.618835,222.399399 511.616791,220.438995 
	C511.045441,219.321182 509.332214,218.229706 508.096863,218.187424 
	C507.132141,218.154419 505.870819,219.603821 505.190247,220.678772 
	C504.625366,221.571030 504.779510,222.894348 504.494324,223.995422 
	C504.261963,224.892471 503.850800,225.743179 503.394592,226.940659 
	C500.515381,223.796082 503.095825,215.984497 494.981750,218.445663 
	C496.781799,224.661682 498.560272,230.803223 500.357513,237.009567 
	C508.746002,237.422836 505.054901,229.211563 508.442505,226.631424 
	C511.658173,229.427231 508.342438,237.715515 516.623474,236.875336 
	C518.446533,230.482330 520.162415,224.465210 521.988525,218.061661 
	C520.427612,218.061661 519.123413,218.061661 517.075012,218.447281 
M254.648819,211.132004 
	C254.432541,216.060333 254.005890,220.991379 254.069794,225.916077 
	C254.116837,229.541946 252.853104,232.700989 249.383942,232.744507 
	C245.960114,232.787476 243.637802,230.300232 243.922974,226.060272 
	C244.253662,221.143158 244.000000,216.186737 244.000000,210.962021 
	C241.689331,211.066269 239.961746,211.144211 237.542831,211.253342 
	C238.059799,218.058319 238.185196,224.481827 239.140427,230.779495 
	C239.910553,235.856750 244.341217,237.719223 251.833939,236.997116 
	C256.215393,236.574844 258.923157,233.467865 258.986084,228.621979 
	C259.048706,223.796844 258.838226,218.962799 259.060669,214.147125 
	C259.191010,211.325516 258.006348,210.643936 254.648819,211.132004 
M587.592468,236.854553 
	C589.019165,236.854553 590.445923,236.854553 591.835266,236.854553 
	C591.991028,234.379028 592.115051,232.406937 592.292664,229.583817 
	C595.455261,233.660141 596.691772,239.287598 603.196594,236.202118 
	C600.772583,232.801132 598.478516,229.582458 596.335510,226.575714 
	C598.603516,223.673447 600.672302,221.026123 602.741089,218.378784 
	C602.430908,217.928543 602.120667,217.478317 601.810486,217.028076 
	C598.567566,218.710007 595.324646,220.391953 591.827759,222.205597 
	C591.827759,217.957489 591.827759,213.564575 591.827759,208.899841 
	C589.972595,209.067291 588.579285,209.193054 587.076660,209.328690 
	C587.076660,218.490799 587.076660,227.287415 587.592468,236.854553 
M154.232208,215.057877 
	C155.630432,215.735184 157.028671,216.412491 158.375732,217.065018 
	C159.319931,215.527939 160.032715,214.367615 161.353424,212.217651 
	C157.779510,211.744980 154.972961,211.275604 152.147003,211.024658 
	C148.545792,210.704880 145.903946,212.445343 145.189026,215.861389 
	C144.514282,219.085510 144.731827,222.339233 148.487793,224.249435 
	C151.270355,225.664612 153.755432,227.664719 156.441467,229.449753 
	C154.374176,232.622437 152.574036,234.185883 149.538177,232.126419 
	C146.721069,230.215363 145.130112,231.608322 143.776703,234.465256 
	C145.005966,235.251358 145.992828,236.140472 147.150406,236.581268 
	C155.271637,239.673904 162.602509,235.306915 160.691574,228.054565 
	C159.914017,225.103622 155.748535,223.042816 153.117981,220.584000 
	C152.099670,219.632156 151.063293,218.699631 150.035141,217.758301 
	C151.173874,216.844360 152.312607,215.930405 154.232208,215.057877 
M189.679947,218.952484 
	C186.615997,218.640213 183.542130,218.058014 180.493790,218.170151 
	C179.500595,218.206711 178.574036,220.054626 177.616989,221.074112 
	C179.025757,221.581741 180.401642,222.238922 181.851913,222.557938 
	C183.544052,222.930176 185.301163,223.007034 187.030090,223.212051 
	C186.911255,223.727325 186.792435,224.242584 186.673599,224.757858 
	C185.217697,224.937531 183.706451,224.927322 182.316299,225.332535 
	C178.170868,226.540878 175.854599,229.109024 177.053955,233.668198 
	C178.183014,237.960068 181.757874,236.929504 184.786957,236.963242 
	C187.078003,236.988754 189.369553,236.968292 192.724625,236.968292 
	C191.939438,230.684189 191.217407,224.905533 189.679947,218.952484 
M222.616455,220.126877 
	C217.181168,215.896805 214.409424,216.196014 210.069992,219.555161 
	C206.024536,222.686752 205.913589,230.456421 209.357468,234.749496 
	C211.719543,237.694000 219.149673,237.938461 224.082077,234.416016 
	C222.725296,233.450317 221.131378,232.542862 219.731461,232.780106 
	C215.320862,233.527542 213.862640,232.687485 212.855423,227.789703 
	C216.530090,227.789703 220.145676,227.789703 224.406021,227.789703 
	C223.873749,225.212006 223.424820,223.037933 222.616455,220.126877 
M308.924194,233.544891 
	C312.180481,237.835968 318.504120,238.487854 324.106506,234.258728 
	C322.705994,233.376740 321.060486,232.561020 319.622192,232.834595 
	C315.593506,233.600906 313.334808,232.211334 312.436646,227.838013 
	C316.343994,227.838013 320.081726,227.838013 325.485565,227.838013 
	C323.540131,223.998657 322.718414,220.429489 320.485901,218.457840 
	C317.613434,215.921021 313.761475,217.034592 310.618439,219.123367 
	C306.785614,221.670563 305.942566,227.279510 308.924194,233.544891 
M102.739204,218.056625 
	C102.167290,217.929749 101.107513,217.832809 101.097618,217.671463 
	C100.975487,215.680984 101.331268,213.603638 100.879860,211.711899 
	C100.596390,210.523926 99.160652,209.610901 98.241867,208.574524 
	C97.827911,208.893631 97.413956,209.212753 97.000000,209.531876 
	C97.000000,214.003220 97.000000,218.474579 97.000000,222.945923 
	C97.000000,227.560806 97.000000,232.175690 97.000000,236.790588 
	C97.515419,237.047882 98.030846,237.305176 98.546265,237.562485 
	C99.363220,236.515900 100.651207,235.566101 100.890610,234.400879 
	C101.284431,232.484055 101.194199,230.404434 100.959518,228.434967 
	C100.465790,224.291534 102.187279,222.232895 107.397209,221.973495 
	C107.712761,226.983246 108.024597,231.933914 108.350677,237.110840 
	C110.059456,236.936157 111.455338,236.793457 112.997353,236.635818 
	C112.997353,232.284225 113.193687,228.289215 112.948196,224.321533 
	C112.633728,219.239243 110.267273,215.765121 102.739204,218.056625 
M477.000000,228.360672 
	C477.576141,235.825317 484.599823,239.772964 491.195740,236.244293 
	C491.979645,235.824921 492.369934,234.669891 492.942657,233.855850 
	C491.945892,233.424835 490.883881,232.515610 489.963074,232.641235 
	C484.412323,233.398483 483.437164,232.906647 482.405304,227.866211 
	C486.265045,227.866211 490.055267,227.866211 495.494171,227.866211 
	C493.504730,224.234497 492.423431,221.270828 490.509399,219.013046 
	C488.025421,216.082962 484.431763,216.629257 481.513153,218.310669 
	C478.170105,220.236633 476.468262,223.439484 477.000000,228.360672 
M128.396301,232.019073 
	C124.462364,233.623672 121.066765,234.002914 120.079971,228.000000 
	C122.197746,228.000000 124.135918,228.000000 126.074097,228.000000 
	C127.996590,228.000000 129.919083,228.000000 131.858765,228.000000 
	C131.522400,220.320618 127.244064,216.018097 121.973282,217.506042 
	C115.862030,219.231247 113.084351,224.984558 115.195488,231.544647 
	C116.717957,236.275543 123.719421,238.866577 128.927887,236.550369 
	C131.735947,235.301620 131.792892,233.729019 128.396301,232.019073 
M562.179077,236.999664 
	C564.063293,235.884583 566.478210,235.180817 567.725098,233.571854 
	C570.640015,229.810577 571.488708,225.224518 567.940002,221.577744 
	C565.842773,219.422516 562.356140,217.373474 559.539429,217.432388 
	C554.227478,217.543533 550.401550,223.240738 551.010620,228.379562 
	C551.667542,233.921906 555.329712,236.979279 562.179077,236.999664 
M415.667877,237.000000 
	C419.066162,237.557739 421.719696,236.483932 423.846100,233.690933 
	C426.645630,230.013824 426.995361,224.348068 423.747009,220.582230 
	C420.922852,217.308105 417.023071,216.465469 412.791901,218.046387 
	C408.193573,219.764465 407.257416,223.802597 407.098999,227.868057 
	C406.919281,232.479950 410.331665,236.105820 415.667877,237.000000 
M544.066040,220.364761 
	C542.861328,218.563461 541.278992,216.904877 540.532593,214.930328 
	C539.099792,211.140015 536.869690,209.932343 532.776672,211.663284 
	C536.152527,219.812775 542.919495,226.782928 540.860413,236.618195 
	C542.864807,236.618195 544.361389,236.618195 546.308044,236.618195 
	C543.817993,226.501984 551.448547,219.747238 553.905090,211.421280 
	C550.252808,210.134109 548.227966,211.402847 547.044189,214.576965 
	C546.366821,216.393158 545.434814,218.114319 544.066040,220.364761 
M272.996643,225.028549 
	C272.996643,228.965073 272.996643,232.901596 272.996643,237.128708 
	C275.038483,236.934387 276.433289,236.801636 277.998077,236.652710 
	C277.998077,231.647110 278.050934,227.000793 277.981689,222.356308 
	C277.924255,218.503235 274.969482,217.254822 272.026031,217.184052 
	C268.818176,217.106934 265.584625,218.097000 262.257263,218.638931 
	C262.257263,224.522339 262.257263,230.610611 262.257263,236.710205 
	C263.920380,236.710205 265.311371,236.710205 267.003754,236.710205 
	C267.003754,232.959854 266.759552,229.464386 267.124146,226.033630 
	C267.269531,224.665268 268.554565,223.150696 269.747528,222.304062 
	C270.172272,222.002625 271.859314,223.479828 272.996643,225.028549 
M87.409172,211.000000 
	C83.313065,211.000000 79.216965,211.000000 74.847221,211.000000 
	C75.062660,213.087326 75.207710,214.492645 75.378067,216.143173 
	C77.688721,216.143173 79.631065,216.143173 82.020950,216.143173 
	C82.020950,223.163422 82.020950,229.911270 82.020950,236.735046 
	C83.876694,236.735046 85.264229,236.735046 87.107315,236.735046 
	C87.107315,229.742142 87.107315,222.999481 87.107315,216.207397 
	C89.643524,216.028946 91.727753,215.882309 94.068199,215.717636 
	C93.924927,213.973450 93.810883,212.585037 93.680679,211.000000 
	C91.668907,211.000000 90.021042,211.000000 87.409172,211.000000 
M429.059448,215.738327 
	C428.495575,217.692322 427.533783,219.637222 427.488770,221.603088 
	C427.450012,223.296768 428.793274,224.988342 428.927338,226.726974 
	C429.179382,229.995773 429.000000,233.297852 429.000000,236.772583 
	C430.814056,236.772583 432.202728,236.772583 434.027588,236.772583 
	C434.027588,231.817932 434.027588,227.066391 434.027588,222.290329 
	C436.521576,221.688904 440.484497,222.932922 438.510620,218.205978 
	C437.059418,218.051208 435.624603,217.898193 432.464905,217.561218 
	C436.195099,214.503891 438.810913,212.359909 442.263763,209.529892 
	C432.231201,208.438507 431.435181,208.842209 429.059448,215.738327 
M351.888824,222.477325 
	C352.058899,221.300385 352.469086,219.118820 352.363831,219.093658 
	C349.840942,218.490616 347.032440,217.308792 344.765686,217.953766 
	C342.857849,218.496643 340.356384,221.194260 340.328888,222.972214 
	C340.298279,224.951324 342.530640,227.211975 344.234589,228.884857 
	C345.375427,230.004883 347.312195,230.314102 348.892822,230.986130 
	C348.829865,231.512527 348.766876,232.038940 348.703918,232.565338 
	C346.818573,232.565338 344.918060,232.423019 343.053864,232.621521 
	C342.023346,232.731262 341.053589,233.412079 340.056458,233.835464 
	C340.660889,234.859283 341.079010,236.532791 341.908813,236.770721 
	C343.601471,237.256088 345.515747,236.989471 347.338837,236.994370 
	C350.713562,237.003448 353.442932,235.517532 353.254761,232.047195 
	C353.142242,229.971848 351.363312,227.744217 349.813080,226.065628 
	C348.554047,224.702362 346.520081,224.054825 344.829773,223.089859 
	C344.992126,222.666901 345.154480,222.243942 345.316833,221.820984 
	C347.286682,222.185226 349.256531,222.549484 351.888824,222.477325 
M290.922974,224.628174 
	C292.051849,227.983963 293.017334,231.409622 294.405090,234.654694 
	C294.845001,235.683426 296.404694,236.820007 297.464050,236.831909 
	C298.522186,236.843781 300.149719,235.738968 300.569458,234.726517 
	C302.804596,229.334839 304.738983,223.818512 306.838715,218.180847 
	C304.633484,218.180847 303.012878,218.180847 301.512115,218.180847 
	C300.211609,221.831085 298.980835,225.285507 297.791504,228.623657 
	C294.488922,225.510986 297.337921,217.438721 288.652283,218.137772 
	C289.414581,220.594070 289.937073,222.277725 290.922974,224.628174 
M205.198929,221.909363 
	C205.509903,220.786667 205.820877,219.663986 206.243057,218.139816 
	C204.178589,218.031433 202.765320,217.957245 201.145401,217.872208 
	C201.033340,216.146027 200.941605,214.732773 200.845764,213.256500 
	C199.109131,213.256500 197.707977,213.256500 197.746948,213.256500 
	C195.887573,215.472244 194.581146,216.719360 193.687668,218.213425 
	C193.175903,219.069168 193.069717,221.224457 193.231049,221.272141 
	C198.127243,222.719635 195.770065,226.691528 195.894714,229.460922 
	C196.232040,236.954941 198.622025,238.632401 206.596680,236.005737 
	C206.278107,234.730453 205.951187,233.421646 205.624252,232.112854 
	C205.224060,232.443787 204.823883,232.774734 204.423691,233.105667 
	C203.285629,232.134201 201.020065,230.641006 201.189606,230.274628 
	C202.436752,227.579575 197.540085,222.441788 205.198929,221.909363 
M372.407257,236.999847 
	C373.787201,236.852127 375.167145,236.704407 376.838928,236.525452 
	C376.266968,234.583649 375.888245,233.297745 375.513458,232.025330 
	C370.654633,233.256302 369.863770,231.106049 371.369202,223.304535 
	C373.347168,221.858597 374.721893,220.958374 375.932587,219.874847 
	C376.158417,219.672714 375.725800,218.734909 375.619537,218.241013 
	C373.928406,218.008377 372.522491,217.814972 371.259949,217.641281 
	C371.010712,215.895660 370.809692,214.487671 370.624817,213.192764 
	C369.014404,213.192764 367.731049,213.192764 366.687866,213.192764 
	C365.749359,215.860687 364.208435,218.277206 364.215057,220.689453 
	C364.224640,224.178085 365.321198,227.670425 366.017487,231.148468 
	C366.636078,234.238449 367.409821,237.245743 372.407257,236.999847 
M169.745239,236.999329 
	C171.387451,236.999329 173.029648,236.999329 174.544434,236.999329 
	C176.255081,231.990921 173.226807,232.442429 170.196579,232.977127 
	C170.196579,229.280121 170.196579,225.836472 170.196579,223.287964 
	C171.831024,221.943787 172.905823,221.059860 173.980621,220.175949 
	C172.876892,219.145859 171.773163,218.115784 170.112381,216.565811 
	C170.055099,216.058929 169.894577,214.638245 169.706589,212.974411 
	C167.989639,213.086533 166.579926,213.178589 166.473633,213.185532 
	C164.849487,215.406357 163.751175,216.674240 162.938980,218.104599 
	C162.434341,218.993332 161.974472,220.948242 162.153931,221.033310 
	C167.390427,223.515213 164.432678,228.145172 164.887955,231.742950 
	C165.241028,234.532944 165.771713,236.574799 169.745239,236.999329 
M112.999939,144.406372 
	C113.949875,139.604324 110.823563,137.308716 107.084877,137.335129 
	C104.103302,137.356201 100.237564,138.375214 99.966599,143.032425 
	C99.717606,147.312149 101.685791,150.624924 105.463860,150.920212 
	C109.434593,151.230560 112.581612,149.920258 112.999939,144.406372 
M272.607300,137.083878 
	C272.031097,137.379929 271.483307,137.767166 270.874054,137.957260 
	C266.922546,139.190170 265.192932,141.973190 266.453003,145.791092 
	C267.606110,149.284973 270.351624,151.570984 274.339813,150.803421 
	C278.090546,150.081589 281.382355,145.359024 279.779022,142.387589 
	C278.559601,140.127655 275.581696,138.816528 272.607300,137.083878 
M572.000000,232.336700 
	C572.069946,233.786987 572.139954,235.237274 572.211975,236.729370 
	C573.888794,236.729370 575.277771,236.729370 576.673218,236.729370 
	C578.234131,231.050354 573.427856,222.604706 585.744080,221.416336 
	C583.420227,219.321259 582.187195,217.273865 580.893921,217.235046 
	C578.047119,217.149597 575.169800,218.078293 572.000000,218.647873 
	C572.000000,222.791122 572.000000,227.082916 572.000000,232.336700 
M327.000000,223.650696 
	C327.000000,228.059982 327.000000,232.469254 327.000000,237.147339 
	C329.058838,236.938156 330.452240,236.796600 331.999969,236.639359 
	C331.999969,235.133591 331.877289,233.972626 332.021698,232.845917 
	C332.580841,228.483856 329.532684,222.324799 337.607727,221.556198 
	C338.125366,221.506927 338.980896,219.508301 338.745392,218.682938 
	C338.534515,217.943817 336.983978,217.051239 336.111237,217.134583 
	C333.199310,217.412628 330.326294,218.098557 327.000000,218.708603 
	C327.000000,219.766281 327.000000,221.234268 327.000000,223.650696 
M360.990051,235.181564 
	C360.990051,229.584991 360.990051,223.988419 360.990051,218.235367 
	C359.169098,218.235367 357.782227,218.235367 356.231201,218.235367 
	C356.231201,224.517166 356.231201,230.569366 356.231201,237.255127 
	C358.023193,236.818558 359.469849,236.466125 360.990051,235.181564 
M286.000000,229.442505 
	C286.000000,225.688690 286.000000,221.934891 286.000000,217.899994 
	C283.984528,218.067642 282.596252,218.183136 281.304199,218.290604 
	C281.304199,224.725784 281.304199,230.777435 281.304199,237.084503 
	C283.020782,236.934494 284.410950,236.813019 286.000000,236.674164 
	C286.000000,234.350723 286.000000,232.380676 286.000000,229.442505 
M281.009552,213.407257 
	C282.322418,214.254257 283.566895,215.303253 285.002045,215.789108 
	C285.313782,215.894638 286.840485,213.981003 286.839935,212.997894 
	C286.839417,212.014908 285.310852,210.103165 284.998810,210.209091 
	C283.564392,210.695984 282.321259,211.746353 281.009552,213.407257 
M361.481140,214.980362 
	C361.126984,213.390549 360.978729,211.699432 360.279938,210.279190 
	C360.095673,209.904633 357.798492,209.955551 357.209869,210.546494 
	C356.440674,211.318726 355.894287,213.724228 356.138580,213.862701 
	C357.586426,214.683212 359.290863,215.051010 361.481140,214.980362 
z"/>
<path fill="#006EB9" opacity="1.000000" stroke="none" 
	d="
M405.531342,1.000000 
	C406.000000,4.805651 406.000000,8.611302 406.000000,13.000246 
	C401.287415,13.000246 396.845428,13.100863 392.410339,12.969365 
	C388.659393,12.858152 386.903259,14.400479 386.971954,18.238564 
	C387.079224,24.231541 387.000336,30.227846 387.000336,36.724922 
	C388.498260,36.819984 389.915924,36.986115 391.333862,36.988129 
	C405.159698,37.007767 418.994415,37.300941 432.808350,36.894840 
	C442.112305,36.621315 451.413269,44.643890 453.020996,51.825901 
	C455.382507,62.374973 451.808075,70.310730 442.274536,75.312035 
	C441.464569,75.736938 440.729828,76.305275 439.856293,76.874695 
	C448.353180,81.210327 454.635956,87.029869 454.941284,96.925056 
	C455.375397,110.992752 445.735962,119.664963 433.013153,119.794647 
	C385.378601,120.280190 337.735657,119.946564 290.095886,119.913086 
	C289.947815,119.912987 289.799835,119.810555 289.325897,119.635643 
	C289.325897,115.705116 289.325897,111.645798 289.325897,107.000000 
	C293.225586,107.000000 297.214874,106.609612 301.094604,107.095016 
	C306.402954,107.759163 307.786041,104.757950 307.947754,100.582100 
	C308.153137,95.278923 307.997467,89.961769 307.997467,84.138268 
	C301.769409,83.750328 295.732330,83.527046 289.726288,82.969475 
	C275.715668,81.668770 261.970520,79.368294 250.077759,71.010323 
	C242.337692,65.570770 238.218018,58.082043 238.041107,48.648552 
	C237.856873,38.823982 237.863617,28.990519 238.061615,19.166481 
	C238.151016,14.730220 236.614548,12.699659 232.015930,12.952284 
	C227.888840,13.179006 223.739487,13.000037 219.000000,13.000037 
	C219.000000,9.133410 219.000000,5.530407 219.000000,1.463702 
	C244.020889,1.000000 269.041779,1.000000 294.531342,1.463701 
	C295.000000,5.529549 295.000000,9.131696 295.000000,13.000177 
	C290.432220,13.000177 286.458557,13.089135 282.490631,12.976722 
	C277.955078,12.848228 275.921722,14.905900 275.970306,19.456587 
	C276.069824,28.780218 275.665680,38.122280 276.127991,47.423992 
	C276.397003,52.836262 276.952118,58.429337 281.225525,62.790974 
	C288.687134,70.406586 297.945831,71.229942 307.999603,70.901611 
	C307.999603,65.538383 308.085571,60.726566 307.975250,55.919250 
	C307.867035,51.204628 305.720764,49.129139 300.938507,49.018734 
	C297.019592,48.928257 293.096954,49.000298 289.382629,49.000298 
	C289.382629,44.574032 289.382629,40.847221 289.382629,36.848202 
	C314.025330,36.848202 338.286438,36.848202 362.612854,36.848202 
	C362.776855,36.130333 362.971466,35.670540 362.973511,35.209892 
	C362.998566,29.548588 362.916656,23.885622 363.027069,18.226295 
	C363.102051,14.382716 361.322266,12.850879 357.580811,12.970422 
	C353.480408,13.101434 349.372559,13.000245 345.000000,13.000245 
	C345.000000,8.610889 345.000000,4.805445 345.000000,1.000000 
	C365.020905,1.000000 385.041779,1.000000 405.531342,1.000000 
M388.500000,107.000000 
	C395.825775,107.000000 403.151581,107.009773 410.477325,106.997070 
	C416.913696,106.985909 422.751556,101.546448 422.799347,95.542404 
	C422.846710,89.592987 416.959534,84.007774 410.583862,84.004158 
	C390.604492,83.992844 370.625122,83.995438 350.645752,84.009529 
	C349.202728,84.010544 347.759766,84.147453 346.307739,84.221634 
	C346.307739,91.948853 346.307739,99.338417 346.307739,107.000000 
	C360.242432,107.000000 373.871216,107.000000 388.500000,107.000000 
M386.999298,53.298706 
	C386.259918,59.825459 384.258820,65.820061 378.686890,70.999992 
	C390.065979,70.999992 400.481171,71.018723 410.896210,70.992989 
	C417.174286,70.977478 422.833252,65.818588 422.914062,60.110413 
	C422.986694,54.976971 416.909393,49.142948 411.088593,49.031822 
	C404.116913,48.898727 397.137085,49.130657 390.168243,48.936646 
	C387.387177,48.859219 386.645294,49.949112 386.999298,53.298706 
M350.624329,49.000011 
	C349.189606,49.073376 347.754883,49.146744 346.000580,49.236450 
	C346.000580,55.640629 345.990906,61.734280 346.010529,67.827835 
	C346.013611,68.793747 346.148987,69.759239 346.220673,70.692261 
	C357.753906,71.536964 364.745514,62.187260 362.371948,49.000000 
	C358.823212,49.000000 355.208618,49.000000 350.624329,49.000011 
z"/>
<path fill="#FFFFFF" opacity="1.000000" stroke="none" 
	d="
M344.531342,1.000000 
	C345.000000,4.805445 345.000000,8.610889 345.000000,13.000245 
	C349.372559,13.000245 353.480408,13.101434 357.580811,12.970422 
	C361.322266,12.850879 363.102051,14.382716 363.027069,18.226295 
	C362.916656,23.885622 362.998566,29.548588 362.973511,35.209892 
	C362.971466,35.670540 362.776855,36.130333 362.612854,36.848202 
	C338.286438,36.848202 314.025330,36.848202 289.382629,36.848202 
	C289.382629,40.847221 289.382629,44.574032 289.382629,49.000298 
	C293.096954,49.000298 297.019592,48.928257 300.938507,49.018734 
	C305.720764,49.129139 307.867035,51.204628 307.975250,55.919250 
	C308.085571,60.726566 307.999603,65.538383 307.999603,70.901611 
	C297.945831,71.229942 288.687134,70.406586 281.225525,62.790974 
	C276.952118,58.429337 276.397003,52.836262 276.127991,47.423992 
	C275.665680,38.122280 276.069824,28.780218 275.970306,19.456587 
	C275.921722,14.905900 277.955078,12.848228 282.490631,12.976722 
	C286.458557,13.089135 290.432220,13.000177 295.000000,13.000177 
	C295.000000,9.131696 295.000000,5.529549 295.000000,1.463701 
	C311.354218,1.000000 327.708466,1.000000 344.531342,1.000000 
z"/>
<path fill="#006EB9" opacity="1.000000" stroke="none" 
	d="
M1.000000,141.444168 
	C8.140966,141.000000 15.281932,141.000000 22.363386,141.000000 
	C23.718388,148.521835 23.650057,148.673706 18.001295,150.529266 
	C18.001295,158.070786 17.916019,165.720215 18.035461,173.366440 
	C18.100058,177.501816 22.274170,181.058563 26.589190,180.977234 
	C30.683605,180.900040 34.922256,177.077576 34.971897,173.152542 
	C35.066605,165.664658 34.999382,158.174698 34.999382,150.277390 
	C28.313066,150.037491 30.051342,145.417694 30.118896,141.244370 
	C36.767418,141.244370 43.176907,141.244370 50.056366,141.244370 
	C48.986553,144.477798 52.649132,148.887329 46.663898,150.301651 
	C46.185329,150.414734 46.082684,152.649185 46.020855,153.908386 
	C45.648777,161.485626 45.921982,169.149185 44.854084,176.623077 
	C43.664345,184.949646 36.904228,190.096802 28.614834,189.941895 
	C24.206783,189.859497 19.663870,189.738541 15.442675,188.636169 
	C9.318437,187.036789 5.144658,179.661011 5.017889,171.534210 
	C4.926926,165.702835 4.760305,159.854782 5.102005,154.042084 
	C5.270646,151.173294 4.190924,149.939697 1.382963,149.129730 
	C1.000000,146.629440 1.000000,144.258896 1.000000,141.444168 
z"/>
<path fill="#006EB9" opacity="1.000000" stroke="none" 
	d="
M377.437500,245.000000 
	C377.000000,243.852844 377.000000,242.705704 377.000000,241.596817 
	C383.461853,240.368515 384.775391,237.672089 382.232727,231.562729 
	C381.305878,229.335861 380.745789,226.958923 379.887421,224.700211 
	C379.082184,222.581177 378.104065,220.527878 377.169373,218.370392 
	C383.792175,217.901840 381.931732,215.735107 386.488892,229.040085 
	C387.361420,226.922607 388.082825,225.340851 388.666595,223.709824 
	C389.312592,221.904984 389.832642,220.055099 390.435516,218.135712 
	C392.151947,218.135712 393.783081,218.135712 396.192413,218.135712 
	C392.709198,226.608978 389.384674,234.758881 385.972321,242.871841 
	C385.713593,243.487015 384.830933,243.839722 384.119141,244.657211 
	C381.958344,245.000000 379.916656,245.000000 377.437500,245.000000 
z"/>
<path fill="#006EB9" opacity="1.000000" stroke="none" 
	d="
M688.000000,149.571533 
	C683.232605,153.336899 678.319519,152.565842 678.173889,148.265686 
	C678.104858,146.227310 679.313965,143.599976 680.826477,142.178391 
	C683.243286,139.906921 685.459778,141.946518 687.661865,143.905670 
	C688.000000,145.714355 688.000000,147.428711 688.000000,149.571533 
z"/>
<path fill="#006EB9" opacity="1.000000" stroke="none" 
	d="
M551.000000,176.793152 
	C551.769287,178.825562 552.538574,180.384583 553.307861,181.943604 
	C553.812073,181.794724 554.316223,181.645844 554.820435,181.496964 
	C554.820435,183.783981 554.820435,186.071014 554.820435,188.679718 
	C548.078735,188.679718 541.343994,188.679718 534.148499,188.679718 
	C534.384155,185.294495 531.820190,180.712692 538.779907,180.863388 
	C538.779907,175.130753 538.779907,169.503372 538.779907,163.464874 
	C537.463684,163.217773 535.940308,162.931793 534.219849,162.608810 
	C534.219849,159.981476 534.219849,157.369614 534.219849,154.402588 
	C535.633728,154.176483 537.166992,153.931274 538.664307,153.691833 
	C538.823242,137.183136 550.401733,134.254593 561.937012,138.733429 
	C560.857544,141.051285 559.857971,143.405212 558.652100,145.648224 
	C558.331604,146.244263 557.282898,146.956589 556.729431,146.841599 
	C550.717224,145.592575 551.056702,149.585236 551.007874,153.711121 
	C554.563843,153.711121 557.977905,153.711121 560.075317,153.711121 
	C562.838379,148.458862 564.274170,142.501053 568.051819,139.356247 
	C572.903809,135.317017 579.707336,136.176010 586.125305,138.516830 
	C585.706116,140.830017 585.629211,143.175903 584.763489,145.181229 
	C584.359680,146.116486 582.390564,146.951065 581.194885,146.871429 
	C575.518677,146.493393 574.041260,147.726120 574.148315,153.794495 
	C576.539246,153.794495 578.949585,153.794495 581.680481,153.794495 
	C581.680481,156.934326 581.680481,159.666000 581.680481,162.765381 
	C579.335205,162.900925 576.921814,163.040405 574.263977,163.194000 
	C574.263977,169.078079 574.263977,174.822876 574.263977,180.556488 
	C580.138733,181.397247 580.138733,181.397247 578.399414,188.845673 
	C571.807068,188.845673 565.190796,188.845673 558.070007,188.845673 
	C558.332214,185.386246 556.119568,181.323608 561.795166,180.560837 
	C561.795166,174.356216 561.795166,168.416092 561.795166,162.240402 
	C558.327576,162.240402 555.051086,162.240402 551.000000,162.240402 
	C551.000000,166.827255 551.000000,171.573517 551.000000,176.793152 
z"/>
<path fill="#006EB9" opacity="1.000000" stroke="none" 
	d="
M473.807678,142.000168 
	C480.397583,142.562088 484.849274,145.590256 485.781708,151.803299 
	C486.583771,157.147629 484.518555,161.749023 479.370789,164.432281 
	C488.299194,169.601929 490.813568,177.329941 484.870789,183.620789 
	C482.344788,186.294739 478.110046,188.446869 474.472992,188.760269 
	C465.871185,189.501495 457.162170,188.999146 448.496521,188.999603 
	C447.522095,188.999664 446.547668,188.999619 445.629608,188.999619 
	C444.327454,181.612869 444.463806,181.393555 450.780579,180.642410 
	C450.780579,170.715652 450.780579,160.758759 450.780579,150.380066 
	C444.377319,150.508148 444.298187,146.352890 445.462891,140.594360 
	C454.655243,141.057312 464.012726,141.528595 473.807678,142.000168 
M471.336304,169.819244 
	C468.682526,169.474228 466.028748,169.129196 463.302582,168.774750 
	C463.302582,172.970932 463.302582,176.371506 463.302582,179.742889 
	C470.670197,180.264893 473.484894,179.609894 474.645996,176.686234 
	C475.753998,173.896332 474.993500,171.487335 471.336304,169.819244 
M472.867157,157.597260 
	C474.026184,152.309601 470.647278,149.711670 463.210083,150.351822 
	C463.210083,153.747330 463.210083,157.161575 463.210083,162.121628 
	C466.709503,160.604050 469.521667,159.384521 472.867157,157.597260 
z"/>
<path fill="#006EB9" opacity="1.000000" stroke="none" 
	d="
M324.983368,186.892883 
	C322.182007,179.429153 319.551300,172.304199 316.627441,165.301666 
	C315.923706,163.616226 314.247986,162.336639 312.163574,161.373367 
	C312.163574,159.089691 312.163574,156.806015 312.163574,154.262817 
	C318.390961,154.262817 324.457062,154.262817 331.561890,154.262817 
	C330.820953,157.448822 330.167542,160.258453 329.514099,163.068085 
	C329.036987,162.968384 328.559875,162.868698 328.082764,162.768997 
	C329.516602,167.047470 330.950439,171.325943 332.577545,176.181061 
	C334.315582,171.360733 335.890320,166.993286 337.520325,162.472534 
	C331.439209,161.920715 334.858215,157.445923 333.900299,154.283829 
	C339.998260,154.283829 345.733124,154.283829 351.735657,154.283829 
	C351.735657,156.611053 351.735657,158.876114 351.735657,160.157715 
	C349.896515,162.273056 347.993622,163.640427 347.227448,165.480988 
	C343.313751,174.883041 339.746857,184.428696 335.949158,193.880127 
	C333.881866,199.025024 330.900726,203.317810 325.149506,205.059494 
	C318.772430,206.990723 318.499756,206.962036 316.414001,200.848709 
	C315.946777,199.479248 315.548950,198.086075 315.293579,197.264771 
	C318.283722,195.782867 321.449860,194.742493 323.869812,192.781357 
	C325.004089,191.862137 324.699127,189.166931 324.983368,186.892883 
z"/>
<path fill="#006EB9" opacity="1.000000" stroke="none" 
	d="
M66.000458,177.730270 
	C66.244041,179.086792 66.489594,180.760284 66.730095,180.759552 
	C72.835663,180.741089 70.565277,185.219986 71.037384,188.646515 
	C64.152863,188.646515 57.420212,188.646515 50.341507,188.646515 
	C50.341507,186.401245 50.341507,184.009979 50.341507,181.271317 
	C51.640480,181.114578 53.052319,180.944214 54.731487,180.741577 
	C54.731487,174.794632 54.731487,168.848526 54.731487,162.458527 
	C53.477654,162.221085 51.961338,161.933945 50.226879,161.605484 
	C50.226879,159.325912 50.226879,157.040146 50.226879,154.407822 
	C55.235382,153.927200 60.382725,153.433273 65.667244,152.926163 
	C65.883675,154.339462 66.049980,155.425385 66.191048,156.346558 
	C68.695374,155.233505 71.112167,153.451324 73.709221,153.131119 
	C83.466553,151.928040 86.826279,155.846344 87.946434,166.061829 
	C88.289307,169.188660 87.937355,172.386490 88.020424,175.548721 
	C88.083199,177.938614 87.002617,180.584961 90.850052,181.799606 
	C91.938980,182.143387 91.885246,186.106613 92.427704,188.763168 
	C86.577354,188.763168 81.507278,188.763168 75.999908,188.763168 
	C75.999908,181.933990 75.937912,175.314240 76.028175,168.696548 
	C76.068420,165.746231 75.556908,162.944946 72.069641,163.137695 
	C68.932899,163.311096 65.912704,164.603012 65.990662,168.773361 
	C66.043564,171.603683 66.000328,174.435822 66.000458,177.730270 
z"/>
<path fill="#006EB9" opacity="1.000000" stroke="none" 
	d="
M518.509094,189.998596 
	C516.749817,188.973541 515.426270,187.949631 514.166992,186.975403 
	C512.089111,187.857864 509.630707,189.659607 507.044647,189.866669 
	C496.815765,190.685608 494.389771,189.073380 493.073486,177.779434 
	C492.614227,173.838898 493.206635,169.783890 492.899292,165.813614 
	C492.774445,164.200897 491.531616,162.674744 490.797485,161.109192 
	C490.265137,161.259125 489.732788,161.409073 489.200439,161.559006 
	C489.200439,159.271072 489.200439,156.983139 489.200439,154.388123 
	C494.258759,153.920837 499.384644,153.447327 505.000031,152.928589 
	C505.000031,160.328140 505.042542,167.278595 504.979919,174.228088 
	C504.953491,177.155411 505.253784,180.509842 508.639587,180.513474 
	C512.115723,180.517212 514.508972,178.239731 514.075256,173.939316 
	C513.709839,170.315887 514.000000,166.626343 514.000000,162.637787 
	C512.721680,162.249390 511.426544,161.855881 510.204529,161.484604 
	C510.204529,159.002869 510.204529,156.725067 510.204529,154.380203 
	C515.413879,153.891876 520.421387,153.422455 525.871460,152.911560 
	C525.871460,162.339569 525.871460,171.431244 525.871460,180.702423 
	C530.085876,180.953537 532.218323,183.236465 530.764771,186.724472 
	C530.089600,188.344650 527.053955,189.293381 524.905884,189.892654 
	C523.053101,190.409546 520.941833,189.999817 518.509094,189.998596 
z"/>
<path fill="#006EB9" opacity="1.000000" stroke="none" 
	d="
M387.896545,153.936661 
	C394.222382,155.204575 396.788086,158.423859 396.981750,165.069504 
	C397.083405,168.557068 396.914917,172.052811 397.029633,175.539566 
	C397.107025,177.890762 395.956390,180.475769 399.862701,181.690536 
	C402.414490,182.484055 401.332581,189.266068 398.594391,189.613556 
	C394.682007,190.110062 390.667297,189.860764 386.700714,189.758408 
	C386.367645,189.749817 386.068054,188.443085 385.668396,187.550766 
	C380.429688,190.103088 374.983612,191.862869 369.512817,187.961945 
	C365.143921,184.846710 364.905731,179.867966 366.318115,175.845993 
	C369.294037,167.371643 377.843323,168.283844 384.724426,166.599670 
	C384.953644,161.185303 381.017303,160.467972 371.496613,165.122849 
	C370.000153,163.175217 368.448029,161.155121 366.926300,159.174561 
	C371.557648,153.516418 379.794281,151.457779 387.896545,153.936661 
M384.960663,178.997162 
	C384.960663,177.376923 384.960663,175.756683 384.960663,173.638977 
	C382.581207,174.403412 380.496674,174.623489 379.038910,175.695709 
	C378.026886,176.440063 377.049225,179.004852 377.522156,179.609222 
	C378.390778,180.719238 380.306458,181.310120 381.853455,181.472778 
	C382.734558,181.565430 383.749786,180.382736 384.960663,178.997162 
z"/>
<path fill="#006EB9" opacity="1.000000" stroke="none" 
	d="
M647.774292,157.720917 
	C657.689514,149.227402 673.326477,152.601501 677.446350,163.850281 
	C680.512268,172.221298 678.000366,182.046280 671.292908,187.189987 
	C666.034973,191.222122 653.862122,191.281799 648.188293,186.507187 
	C642.006470,181.305130 638.485840,167.153976 647.774292,157.720917 
M665.999756,174.125336 
	C665.998840,172.136841 666.268677,170.101593 665.935242,168.170517 
	C665.398193,165.060394 664.509521,161.941513 660.360413,162.012451 
	C656.503723,162.078369 655.636780,165.041336 655.067627,167.954605 
	C654.724548,169.710663 655.009949,171.587936 654.998291,173.410660 
	C654.975769,176.930237 655.753784,180.212708 659.721741,180.912964 
	C664.052795,181.677292 665.195618,178.353241 665.999756,174.125336 
z"/>
<path fill="#006EB9" opacity="1.000000" stroke="none" 
	d="
M585.771973,157.735870 
	C592.988586,151.879456 600.856750,151.952866 608.763977,154.405151 
	C613.672302,155.927368 614.620483,160.611664 614.949158,165.106384 
	C615.203125,168.579941 614.827332,172.098724 615.064758,175.574631 
	C615.207092,177.658707 613.537598,180.516663 617.430725,181.586136 
	C618.110535,181.772888 618.254944,185.649963 617.774719,187.608871 
	C617.521423,188.642044 615.453247,189.700806 614.085999,189.889542 
	C611.474976,190.249969 608.766724,190.141739 606.125122,189.917725 
	C605.205688,189.839737 604.364075,188.844940 602.951843,187.917465 
	C598.401489,190.027359 592.936035,191.957596 587.466125,187.909592 
	C583.397827,184.898834 583.129578,180.442245 584.397034,176.259155 
	C587.180725,167.071686 595.992859,168.526550 602.815247,166.525589 
	C601.649048,160.808609 598.924072,160.452103 589.263855,165.433914 
	C588.024170,162.978027 586.769531,160.492447 585.771973,157.735870 
M596.599609,175.932846 
	C596.401794,177.454117 596.204041,178.975388 596.006226,180.496658 
	C597.568176,180.682831 599.972412,181.578033 600.528564,180.917450 
	C601.986328,179.185867 602.637817,176.775558 603.610657,174.635757 
	C603.152405,174.391739 602.694153,174.147736 602.235901,173.903732 
	C600.539978,174.390137 598.843994,174.876541 596.599609,175.932846 
z"/>
<path fill="#006EB9" opacity="1.000000" stroke="none" 
	d="
M191.999313,170.943359 
	C192.245453,174.318710 190.668533,175.080414 188.026917,175.032257 
	C182.221115,174.926376 176.412064,174.999405 170.545975,174.999405 
	C173.055359,182.608719 177.417572,183.727875 186.784790,179.031662 
	C187.591248,180.566498 188.298340,182.176910 189.237122,183.638489 
	C190.743240,185.983337 189.976334,187.280396 187.548553,188.103760 
	C178.808289,191.067886 170.211288,191.558655 162.476929,185.652664 
	C160.706802,184.300980 159.548141,181.666275 158.915726,179.396973 
	C156.986847,172.475677 157.458878,162.065567 162.644363,157.717010 
	C168.156067,153.094879 177.380875,151.456360 184.205170,154.700867 
	C190.939285,157.902512 191.058868,164.413834 191.999313,170.943359 
M178.944061,162.755600 
	C173.828278,159.856430 171.851074,160.775909 170.343506,166.833801 
	C173.467834,166.833801 176.569290,166.833801 180.205246,166.833801 
	C179.771637,165.536026 179.441345,164.547501 178.944061,162.755600 
z"/>
<path fill="#006EB9" opacity="1.000000" stroke="none" 
	d="
M256.022583,172.129456 
	C260.394348,180.483932 256.980927,188.308640 248.059418,189.786621 
	C243.704987,190.507996 239.117050,189.990356 234.645599,189.791321 
	C229.150009,189.546677 226.964844,186.558838 227.970184,181.137848 
	C228.176483,180.025467 228.000076,178.842117 228.000076,177.345963 
	C230.908279,177.345963 233.636749,177.345963 235.046005,177.345963 
	C237.349197,179.249817 238.715683,181.275620 240.324081,181.490494 
	C242.518402,181.783630 244.897079,180.696884 247.196716,180.201736 
	C247.171204,179.588272 247.145706,178.974808 247.120209,178.361343 
	C244.000763,177.350967 240.882797,176.335938 237.761536,175.331161 
	C231.033768,173.165390 227.307800,168.666962 228.088882,163.644165 
	C229.130051,156.948898 232.994675,153.340378 240.374802,153.095749 
	C244.934860,152.944611 249.563324,153.474182 254.075317,154.218262 
	C255.218353,154.406784 256.603943,156.474319 256.872223,157.871552 
	C257.332062,160.266495 256.999237,162.813614 256.999237,165.647125 
	C254.105682,165.647125 251.378021,165.647125 248.606140,165.647125 
	C247.287079,160.770203 244.146500,160.065781 238.739624,163.893921 
	C244.610779,166.569046 250.282135,169.153122 256.022583,172.129456 
z"/>
<path fill="#006EB9" opacity="1.000000" stroke="none" 
	d="
M145.693466,180.723343 
	C144.493286,183.603470 143.531998,186.162125 142.566269,188.721893 
	C142.243546,188.804901 141.926590,188.952530 141.606735,188.959106 
	C129.746338,189.203308 129.777725,189.190842 126.045952,178.231903 
	C124.432831,173.494736 122.876465,168.714478 120.828033,164.163681 
	C120.208252,162.786743 118.024467,162.113800 116.139893,160.835403 
	C116.139893,159.183990 116.139893,156.891815 116.139893,154.299622 
	C122.292549,154.299622 128.357452,154.299622 134.934387,154.299622 
	C133.865952,156.986374 137.608963,160.725037 132.456741,162.259048 
	C132.592422,162.701187 132.710358,163.149704 132.866562,163.584473 
	C134.213516,167.333481 135.567413,171.079987 137.220261,175.661758 
	C139.063446,170.717377 140.552887,166.721909 142.054260,162.694427 
	C136.742081,161.401535 139.902451,157.374313 138.822723,154.329880 
	C144.876617,154.329880 150.611084,154.329880 156.674774,154.329880 
	C156.674774,156.633026 156.674774,159.031036 156.674774,161.429031 
	C156.409271,161.227676 156.143784,161.026306 155.878281,160.824951 
	C154.435822,162.533295 152.540070,164.033554 151.641266,165.991470 
	C149.488770,170.680389 147.805206,175.584564 145.693466,180.723343 
z"/>
<path fill="#006EB9" opacity="1.000000" stroke="none" 
	d="
M406.000000,172.966339 
	C406.000000,169.513870 406.000000,166.544647 406.000000,163.220322 
	C404.326874,163.076248 402.919250,162.955017 401.263367,162.812424 
	C401.263367,160.092300 401.263367,157.484665 401.263367,154.452377 
	C402.535217,154.215485 404.053894,153.932617 405.840057,153.599930 
	C405.840057,150.653580 405.840057,147.701340 405.840057,144.374023 
	C409.836273,144.374023 413.564240,144.374023 417.772278,144.374023 
	C417.772278,147.231720 417.772278,150.296143 417.772278,153.756149 
	C420.619995,153.903137 423.024811,154.027252 425.710663,154.165878 
	C425.710663,157.008850 425.710663,159.738007 425.710663,162.936142 
	C423.264343,162.936142 420.865082,162.936142 418.010651,162.936142 
	C418.010651,167.996750 417.767792,172.631119 418.163818,177.210236 
	C418.277496,178.524551 420.816040,180.924347 421.261261,180.717178 
	C426.503418,178.277740 426.689911,181.803162 427.143829,185.277878 
	C427.238403,186.001938 427.741241,186.672668 428.194519,187.674072 
	C422.306488,191.442123 415.871674,191.261749 410.748657,188.401123 
	C407.986877,186.859024 407.401031,181.264847 406.064148,177.418701 
	C405.651550,176.231644 406.000000,174.780060 406.000000,172.966339 
z"/>
<path fill="#006EB9" opacity="1.000000" stroke="none" 
	d="
M637.000000,146.154602 
	C637.000000,157.784897 637.000000,168.935455 637.000000,180.494751 
	C642.905579,180.618912 642.480164,184.468323 641.634399,188.769318 
	C634.853455,188.769318 628.111023,188.769318 620.968445,188.769318 
	C621.719788,185.714905 618.790833,181.646667 624.373474,180.728928 
	C624.718201,180.672272 624.969299,178.997574 624.972961,178.074524 
	C625.014526,167.603821 624.999329,157.132874 624.999329,146.318970 
	C623.623474,146.096298 622.424133,145.902206 621.149536,145.695908 
	C621.149536,143.118195 621.149536,140.837036 621.149536,138.355087 
	C626.757080,137.954178 632.226379,137.563171 637.749573,137.168304 
	C637.479553,140.232605 637.239746,142.953720 637.000000,146.154602 
z"/>
<path fill="#006EB9" opacity="1.000000" stroke="none" 
	d="
M310.520416,187.881226 
	C305.620331,188.773010 300.983765,189.854553 296.352020,189.834122 
	C292.402832,189.816727 289.067139,185.145172 289.016113,180.749298 
	C288.950592,175.105286 289.000183,169.459930 289.000183,163.485535 
	C287.408752,163.204346 285.883698,162.934875 284.198975,162.637207 
	C284.198975,159.932861 284.198975,157.323837 284.198975,154.363480 
	C285.663544,154.146149 287.191650,153.919373 288.967194,153.655884 
	C288.967194,150.507111 288.967194,147.561996 288.967194,144.309921 
	C292.637756,144.309921 296.029144,144.309921 299.895294,144.309921 
	C299.895294,147.361984 299.895294,150.425858 299.895294,153.946762 
	C303.080322,153.946762 305.811859,153.946762 308.766876,153.946762 
	C308.766876,157.006699 308.766876,159.617920 308.766876,162.756210 
	C306.189240,162.880310 303.450684,163.012177 300.034485,163.176666 
	C300.034485,167.378967 299.628326,171.675995 300.160095,175.853638 
	C300.603424,179.336609 301.839478,183.182922 307.200470,179.504501 
	C308.491852,182.417679 309.638947,185.005341 310.520416,187.881226 
z"/>
<path fill="#006EB9" opacity="1.000000" stroke="none" 
	d="
M200.000000,167.146423 
	C200.000000,165.349075 200.000000,164.030457 200.000000,162.354523 
	C198.313797,162.122284 196.775970,161.910492 195.151276,161.686737 
	C195.151276,159.147079 195.151276,156.864517 195.151276,154.389221 
	C200.610931,153.920898 205.963638,153.461746 211.707245,152.969070 
	C211.897507,154.252533 212.066147,155.390091 212.307907,157.020950 
	C216.467407,152.687744 220.788696,151.564468 225.528305,154.326111 
	C225.321060,155.530060 225.341751,156.568375 224.958206,157.425873 
	C223.687317,160.267029 225.211014,165.409927 218.432846,163.511810 
	C215.696579,162.745544 211.621414,165.603821 211.956497,170.448624 
	C212.184753,173.748840 212.000122,177.077637 212.000122,180.853683 
	C218.760956,179.954483 218.580643,183.984787 217.635590,188.746429 
	C210.272629,188.746429 202.857468,188.746429 194.974609,188.746429 
	C195.390594,185.145935 192.976608,180.460388 200.000000,180.821213 
	C200.000000,176.249069 200.000000,171.937119 200.000000,167.146423 
z"/>
<path fill="#006EB9" opacity="1.000000" stroke="none" 
	d="
M263.148132,161.933899 
	C262.378693,159.493881 262.064697,157.105133 261.713226,154.431122 
	C267.615082,153.931946 273.066528,153.470856 278.833130,152.983124 
	C278.833130,162.298676 278.833130,171.221359 278.833130,180.630707 
	C284.949005,180.343246 284.275726,184.367950 283.837891,188.615234 
	C276.724274,188.615234 269.559479,188.615234 262.015686,188.615234 
	C262.369781,185.105270 259.955994,180.379837 266.997986,180.849594 
	C266.997986,175.249069 266.856873,169.950378 267.054321,164.664322 
	C267.161682,161.788956 265.506592,161.899200 263.148132,161.933899 
z"/>
<path fill="#006EB9" opacity="1.000000" stroke="none" 
	d="
M113.000000,167.990601 
	C113.000015,171.319443 112.977180,174.151764 113.008194,176.983490 
	C113.028465,178.834167 112.659744,180.378372 115.326111,181.525070 
	C116.762253,182.142685 116.837280,185.925247 117.662605,188.745087 
	C109.955513,188.745087 103.212631,188.745087 96.233963,188.745087 
	C96.233963,186.321640 96.233963,184.047165 96.233963,181.425644 
	C97.607285,181.194443 99.137520,180.936813 100.816719,180.654099 
	C100.816719,174.556290 100.816719,168.609467 100.816719,162.329529 
	C99.399300,162.140961 97.994370,161.954056 96.293983,161.727859 
	C96.293983,159.361038 96.293983,156.954132 96.293983,154.362595 
	C101.661057,153.916870 107.019196,153.471909 113.000000,152.975220 
	C113.000000,157.941132 113.000000,162.717468 113.000000,167.990601 
z"/>
<path fill="#006EB9" opacity="1.000000" stroke="none" 
	d="
M462.002197,226.018677 
	C460.802185,224.324997 459.660614,222.994705 458.169739,221.257370 
	C458.169739,226.512711 458.169739,231.391434 458.169739,236.616333 
	C456.455444,236.792511 455.057190,236.936218 453.775696,237.067902 
	C453.447449,236.581467 453.103516,236.309235 453.102539,236.035797 
	C453.073944,227.886612 453.079315,219.737320 453.079315,210.806137 
	C462.751587,211.376648 462.428009,221.751541 468.778809,225.412872 
	C468.778809,220.887222 468.778809,216.224533 468.778809,211.292175 
	C470.690826,211.292175 472.078400,211.292175 473.742676,211.292175 
	C473.742676,219.729767 473.742676,228.156769 473.742676,238.360367 
	C471.060059,236.485611 468.960205,235.487305 467.513855,233.895264 
	C465.445526,231.618530 463.855103,228.907578 462.002197,226.018677 
z"/>
<path fill="#006EB9" opacity="1.000000" stroke="none" 
	d="
M517.447144,218.254471 
	C519.123413,218.061661 520.427612,218.061661 521.988525,218.061661 
	C520.162415,224.465210 518.446533,230.482330 516.623474,236.875336 
	C508.342438,237.715515 511.658173,229.427231 508.442505,226.631424 
	C505.054901,229.211563 508.746002,237.422836 500.357513,237.009567 
	C498.560272,230.803223 496.781799,224.661682 494.981750,218.445663 
	C503.095825,215.984497 500.515381,223.796082 503.394592,226.940659 
	C503.850800,225.743179 504.261963,224.892471 504.494324,223.995422 
	C504.779510,222.894348 504.625366,221.571030 505.190247,220.678772 
	C505.870819,219.603821 507.132141,218.154419 508.096863,218.187424 
	C509.332214,218.229706 511.045441,219.321182 511.616791,220.438995 
	C512.618835,222.399399 512.909119,224.723618 513.795715,227.996063 
	C515.104004,224.186508 516.089539,221.316895 517.447144,218.254471 
z"/>
<path fill="#006EB9" opacity="1.000000" stroke="none" 
	d="
M255.110519,211.074753 
	C258.006348,210.643936 259.191010,211.325516 259.060669,214.147125 
	C258.838226,218.962799 259.048706,223.796844 258.986084,228.621979 
	C258.923157,233.467865 256.215393,236.574844 251.833939,236.997116 
	C244.341217,237.719223 239.910553,235.856750 239.140427,230.779495 
	C238.185196,224.481827 238.059799,218.058319 237.542831,211.253342 
	C239.961746,211.144211 241.689331,211.066269 244.000000,210.962021 
	C244.000000,216.186737 244.253662,221.143158 243.922974,226.060272 
	C243.637802,230.300232 245.960114,232.787476 249.383942,232.744507 
	C252.853104,232.700989 254.116837,229.541946 254.069794,225.916077 
	C254.005890,220.991379 254.432541,216.060333 255.110519,211.074753 
z"/>
<path fill="#006EB9" opacity="1.000000" stroke="none" 
	d="
M587.334595,236.469284 
	C587.076660,227.287415 587.076660,218.490799 587.076660,209.328690 
	C588.579285,209.193054 589.972595,209.067291 591.827759,208.899841 
	C591.827759,213.564575 591.827759,217.957489 591.827759,222.205597 
	C595.324646,220.391953 598.567566,218.710007 601.810486,217.028076 
	C602.120667,217.478317 602.430908,217.928543 602.741089,218.378784 
	C600.672302,221.026123 598.603516,223.673447 596.335510,226.575714 
	C598.478516,229.582458 600.772583,232.801132 603.196594,236.202118 
	C596.691772,239.287598 595.455261,233.660141 592.292664,229.583817 
	C592.115051,232.406937 591.991028,234.379028 591.835266,236.854553 
	C590.445923,236.854553 589.019165,236.854553 587.334595,236.469284 
z"/>
<path fill="#006EB9" opacity="1.000000" stroke="none" 
	d="
M153.841766,215.037170 
	C152.312607,215.930405 151.173874,216.844360 150.035141,217.758301 
	C151.063293,218.699631 152.099670,219.632156 153.117981,220.584000 
	C155.748535,223.042816 159.914017,225.103622 160.691574,228.054565 
	C162.602509,235.306915 155.271637,239.673904 147.150406,236.581268 
	C145.992828,236.140472 145.005966,235.251358 143.776703,234.465256 
	C145.130112,231.608322 146.721069,230.215363 149.538177,232.126419 
	C152.574036,234.185883 154.374176,232.622437 156.441467,229.449753 
	C153.755432,227.664719 151.270355,225.664612 148.487793,224.249435 
	C144.731827,222.339233 144.514282,219.085510 145.189026,215.861389 
	C145.903946,212.445343 148.545792,210.704880 152.147003,211.024658 
	C154.972961,211.275604 157.779510,211.744980 161.353424,212.217651 
	C160.032715,214.367615 159.319931,215.527939 158.375732,217.065018 
	C157.028671,216.412491 155.630432,215.735184 153.841766,215.037170 
z"/>
<path fill="#006EB9" opacity="1.000000" stroke="none" 
	d="
M190.087677,219.039673 
	C191.217407,224.905533 191.939438,230.684189 192.724625,236.968292 
	C189.369553,236.968292 187.078003,236.988754 184.786957,236.963242 
	C181.757874,236.929504 178.183014,237.960068 177.053955,233.668198 
	C175.854599,229.109024 178.170868,226.540878 182.316299,225.332535 
	C183.706451,224.927322 185.217697,224.937531 186.673599,224.757858 
	C186.792435,224.242584 186.911255,223.727325 187.030090,223.212051 
	C185.301163,223.007034 183.544052,222.930176 181.851913,222.557938 
	C180.401642,222.238922 179.025757,221.581741 177.616989,221.074097 
	C178.574036,220.054626 179.500595,218.206711 180.493790,218.170151 
	C183.542130,218.058014 186.615997,218.640213 190.087677,219.039673 
z"/>
<path fill="#006EB9" opacity="1.000000" stroke="none" 
	d="
M222.796173,220.495361 
	C223.424820,223.037933 223.873749,225.212006 224.406021,227.789703 
	C220.145676,227.789703 216.530090,227.789703 212.855423,227.789703 
	C213.862640,232.687485 215.320862,233.527542 219.731461,232.780106 
	C221.131378,232.542862 222.725296,233.450317 224.082077,234.416016 
	C219.149673,237.938461 211.719543,237.694000 209.357468,234.749496 
	C205.913589,230.456421 206.024536,222.686752 210.069992,219.555161 
	C214.409424,216.196014 217.181168,215.896805 222.796173,220.495361 
z"/>
<path fill="#006EB9" opacity="1.000000" stroke="none" 
	d="
M308.666412,233.229538 
	C305.942566,227.279510 306.785614,221.670563 310.618439,219.123367 
	C313.761475,217.034592 317.613434,215.921021 320.485901,218.457840 
	C322.718414,220.429489 323.540131,223.998657 325.485565,227.838013 
	C320.081726,227.838013 316.343994,227.838013 312.436646,227.838013 
	C313.334808,232.211334 315.593506,233.600906 319.622192,232.834595 
	C321.060486,232.561020 322.705994,233.376740 324.106506,234.258728 
	C318.504120,238.487854 312.180481,237.835968 308.666412,233.229538 
z"/>
<path fill="#006EB9" opacity="1.000000" stroke="none" 
	d="
M103.144165,218.027451 
	C110.267273,215.765121 112.633728,219.239243 112.948196,224.321533 
	C113.193687,228.289215 112.997353,232.284225 112.997353,236.635818 
	C111.455338,236.793457 110.059456,236.936157 108.350677,237.110840 
	C108.024597,231.933914 107.712761,226.983246 107.397209,221.973495 
	C102.187279,222.232895 100.465790,224.291534 100.959518,228.434967 
	C101.194199,230.404434 101.284431,232.484055 100.890610,234.400879 
	C100.651207,235.566101 99.363220,236.515900 98.546265,237.562485 
	C98.030846,237.305176 97.515419,237.047882 97.000000,236.790588 
	C97.000000,232.175690 97.000000,227.560806 97.000000,222.945923 
	C97.000000,218.474579 97.000000,214.003220 97.000000,209.531876 
	C97.413956,209.212753 97.827911,208.893631 98.241867,208.574524 
	C99.160652,209.610901 100.596390,210.523926 100.879860,211.711899 
	C101.331268,213.603638 100.975487,215.680984 101.097618,217.671463 
	C101.107513,217.832809 102.167290,217.929749 103.144165,218.027451 
z"/>
<path fill="#006EB9" opacity="1.000000" stroke="none" 
	d="
M477.000000,227.932404 
	C476.468262,223.439484 478.170105,220.236633 481.513153,218.310669 
	C484.431763,216.629257 488.025421,216.082962 490.509399,219.013046 
	C492.423431,221.270828 493.504730,224.234497 495.494171,227.866211 
	C490.055267,227.866211 486.265045,227.866211 482.405304,227.866211 
	C483.437164,232.906647 484.412323,233.398483 489.963074,232.641235 
	C490.883881,232.515610 491.945892,233.424835 492.942657,233.855865 
	C492.369934,234.669891 491.979645,235.824921 491.195740,236.244293 
	C484.599823,239.772964 477.576141,235.825317 477.000000,227.932404 
z"/>
<path fill="#006EB9" opacity="1.000000" stroke="none" 
	d="
M128.804489,232.041107 
	C131.792892,233.729019 131.735947,235.301620 128.927887,236.550369 
	C123.719421,238.866577 116.717957,236.275543 115.195488,231.544647 
	C113.084351,224.984558 115.862030,219.231247 121.973282,217.506042 
	C127.244064,216.018097 131.522400,220.320618 131.858765,228.000000 
	C129.919083,228.000000 127.996590,228.000000 126.074097,228.000000 
	C124.135918,228.000000 122.197746,228.000000 120.079971,228.000000 
	C121.066765,234.002914 124.462364,233.623672 128.804489,232.041107 
z"/>
<path fill="#006EB9" opacity="1.000000" stroke="none" 
	d="
M561.757751,236.999832 
	C555.329712,236.979279 551.667542,233.921906 551.010620,228.379562 
	C550.401550,223.240738 554.227478,217.543533 559.539429,217.432388 
	C562.356140,217.373474 565.842773,219.422516 567.940002,221.577744 
	C571.488708,225.224518 570.640015,229.810577 567.725098,233.571854 
	C566.478210,235.180817 564.063293,235.884583 561.757751,236.999832 
M564.947571,228.180771 
	C563.771179,226.125305 562.781799,223.905670 561.250671,222.161682 
	C560.966064,221.837555 557.205444,223.554779 557.260315,224.112595 
	C557.544739,227.006943 558.546082,229.830811 559.297729,232.679199 
	C561.067627,231.417191 562.837585,230.155197 564.947571,228.180771 
z"/>
<path fill="#006EB9" opacity="1.000000" stroke="none" 
	d="
M415.248566,236.999832 
	C410.331665,236.105820 406.919281,232.479950 407.098999,227.868057 
	C407.257416,223.802597 408.193573,219.764465 412.791901,218.046387 
	C417.023071,216.465469 420.922852,217.308105 423.747009,220.582230 
	C426.995361,224.348068 426.645630,230.013824 423.846100,233.690933 
	C421.719696,236.483932 419.066162,237.557739 415.248566,236.999832 
M418.491302,232.000412 
	C419.211334,230.586090 420.483368,229.182144 420.510223,227.754776 
	C420.543030,226.011475 419.972900,223.812164 418.819244,222.643173 
	C418.012726,221.825897 414.615356,221.927704 414.404755,222.445129 
	C413.519897,224.619003 412.915985,227.148697 413.131256,229.462357 
	C413.355530,231.873245 414.895538,233.773560 418.491302,232.000412 
z"/>
<path fill="#006EB9" opacity="1.000000" stroke="none" 
	d="
M544.341797,220.121506 
	C545.434814,218.114319 546.366821,216.393158 547.044189,214.576965 
	C548.227966,211.402847 550.252808,210.134109 553.905090,211.421280 
	C551.448547,219.747238 543.817993,226.501984 546.308044,236.618195 
	C544.361389,236.618195 542.864807,236.618195 540.860413,236.618195 
	C542.919495,226.782928 536.152527,219.812775 532.776672,211.663284 
	C536.869690,209.932343 539.099792,211.140015 540.532593,214.930328 
	C541.278992,216.904877 542.861328,218.563461 544.341797,220.121506 
z"/>
<path fill="#006EB9" opacity="1.000000" stroke="none" 
	d="
M272.983398,224.586823 
	C271.859314,223.479828 270.172272,222.002625 269.747528,222.304062 
	C268.554565,223.150696 267.269531,224.665268 267.124146,226.033630 
	C266.759552,229.464386 267.003754,232.959854 267.003754,236.710205 
	C265.311371,236.710205 263.920380,236.710205 262.257263,236.710205 
	C262.257263,230.610611 262.257263,224.522339 262.257263,218.638931 
	C265.584625,218.097000 268.818176,217.106934 272.026031,217.184052 
	C274.969482,217.254822 277.924255,218.503235 277.981689,222.356308 
	C278.050934,227.000793 277.998077,231.647110 277.998077,236.652710 
	C276.433289,236.801636 275.038483,236.934387 272.996643,237.128708 
	C272.996643,232.901596 272.996643,228.965073 272.983398,224.586823 
z"/>
<path fill="#006EB9" opacity="1.000000" stroke="none" 
	d="
M87.891174,211.000000 
	C90.021042,211.000000 91.668907,211.000000 93.680679,211.000000 
	C93.810883,212.585037 93.924927,213.973450 94.068199,215.717636 
	C91.727753,215.882309 89.643524,216.028946 87.107315,216.207397 
	C87.107315,222.999481 87.107315,229.742142 87.107315,236.735046 
	C85.264229,236.735046 83.876694,236.735046 82.020950,236.735046 
	C82.020950,229.911270 82.020950,223.163422 82.020950,216.143173 
	C79.631065,216.143173 77.688721,216.143173 75.378067,216.143173 
	C75.207710,214.492645 75.062660,213.087326 74.847221,211.000000 
	C79.216965,211.000000 83.313065,211.000000 87.891174,211.000000 
z"/>
<path fill="#006EB9" opacity="1.000000" stroke="none" 
	d="
M429.266846,215.380280 
	C431.435181,208.842209 432.231201,208.438507 442.263763,209.529892 
	C438.810913,212.359909 436.195099,214.503891 432.464905,217.561218 
	C435.624603,217.898193 437.059418,218.051208 438.510620,218.205978 
	C440.484497,222.932922 436.521576,221.688904 434.027588,222.290329 
	C434.027588,227.066391 434.027588,231.817932 434.027588,236.772583 
	C432.202728,236.772583 430.814056,236.772583 429.000000,236.772583 
	C429.000000,233.297852 429.179382,229.995773 428.927338,226.726974 
	C428.793274,224.988342 427.450012,223.296768 427.488770,221.603088 
	C427.533783,219.637222 428.495575,217.692322 429.266846,215.380280 
z"/>
<path fill="#006EB9" opacity="1.000000" stroke="none" 
	d="
M351.557617,222.695526 
	C349.256531,222.549484 347.286682,222.185226 345.316833,221.820984 
	C345.154480,222.243942 344.992126,222.666901 344.829773,223.089859 
	C346.520081,224.054825 348.554047,224.702362 349.813080,226.065628 
	C351.363312,227.744217 353.142242,229.971848 353.254761,232.047195 
	C353.442932,235.517532 350.713562,237.003448 347.338837,236.994370 
	C345.515747,236.989471 343.601471,237.256088 341.908813,236.770721 
	C341.079010,236.532791 340.660889,234.859283 340.056458,233.835464 
	C341.053589,233.412079 342.023346,232.731262 343.053864,232.621521 
	C344.918060,232.423019 346.818573,232.565338 348.703918,232.565338 
	C348.766876,232.038940 348.829865,231.512527 348.892822,230.986130 
	C347.312195,230.314102 345.375427,230.004883 344.234589,228.884857 
	C342.530640,227.211975 340.298279,224.951324 340.328888,222.972214 
	C340.356384,221.194260 342.857849,218.496643 344.765686,217.953766 
	C347.032440,217.308792 349.840942,218.490616 352.363831,219.093658 
	C352.469086,219.118820 352.058899,221.300385 351.557617,222.695526 
z"/>
<path fill="#006EB9" opacity="1.000000" stroke="none" 
	d="
M290.691284,224.294769 
	C289.937073,222.277725 289.414581,220.594070 288.652283,218.137772 
	C297.337921,217.438721 294.488922,225.510986 297.791504,228.623657 
	C298.980835,225.285507 300.211609,221.831085 301.512115,218.180847 
	C303.012878,218.180847 304.633484,218.180847 306.838715,218.180847 
	C304.738983,223.818512 302.804596,229.334839 300.569458,234.726517 
	C300.149719,235.738968 298.522186,236.843781 297.464050,236.831909 
	C296.404694,236.820007 294.845001,235.683426 294.405090,234.654694 
	C293.017334,231.409622 292.051849,227.983963 290.691284,224.294769 
z"/>
<path fill="#006EB9" opacity="1.000000" stroke="none" 
	d="
M204.754395,221.949188 
	C197.540085,222.441788 202.436752,227.579575 201.189606,230.274628 
	C201.020065,230.641006 203.285629,232.134201 204.423691,233.105667 
	C204.823883,232.774734 205.224060,232.443787 205.624252,232.112854 
	C205.951187,233.421646 206.278107,234.730453 206.596680,236.005737 
	C198.622025,238.632401 196.232040,236.954941 195.894714,229.460922 
	C195.770065,226.691528 198.127243,222.719635 193.231049,221.272141 
	C193.069717,221.224457 193.175903,219.069168 193.687668,218.213425 
	C194.581146,216.719360 195.887573,215.472244 197.746948,213.256500 
	C197.707977,213.256500 199.109131,213.256500 200.845764,213.256500 
	C200.941605,214.732773 201.033340,216.146027 201.145401,217.872208 
	C202.765320,217.957245 204.178589,218.031433 206.243057,218.139816 
	C205.820877,219.663986 205.509903,220.786667 204.754395,221.949188 
z"/>
<path fill="#006EB9" opacity="1.000000" stroke="none" 
	d="
M371.990051,236.999481 
	C367.409821,237.245743 366.636078,234.238449 366.017487,231.148468 
	C365.321198,227.670425 364.224640,224.178085 364.215057,220.689453 
	C364.208435,218.277206 365.749359,215.860687 366.687866,213.192764 
	C367.731049,213.192764 369.014404,213.192764 370.624817,213.192764 
	C370.809692,214.487671 371.010712,215.895660 371.259949,217.641281 
	C372.522491,217.814972 373.928406,218.008377 375.619537,218.241013 
	C375.725800,218.734909 376.158417,219.672714 375.932587,219.874847 
	C374.721893,220.958374 373.347168,221.858597 371.369202,223.304535 
	C369.863770,231.106049 370.654633,233.256302 375.513458,232.025330 
	C375.888245,233.297745 376.266968,234.583649 376.838928,236.525452 
	C375.167145,236.704407 373.787201,236.852127 371.990051,236.999481 
z"/>
<path fill="#006EB9" opacity="1.000000" stroke="none" 
	d="
M169.311630,236.996826 
	C165.771713,236.574799 165.241028,234.532944 164.887955,231.742950 
	C164.432678,228.145172 167.390427,223.515213 162.153931,221.033310 
	C161.974472,220.948242 162.434341,218.993332 162.938980,218.104599 
	C163.751175,216.674240 164.849487,215.406357 166.473633,213.185532 
	C166.579926,213.178589 167.989639,213.086533 169.706589,212.974411 
	C169.894577,214.638245 170.055099,216.058929 170.112381,216.565811 
	C171.773163,218.115784 172.876892,219.145859 173.980621,220.175949 
	C172.905823,221.059860 171.831024,221.943787 170.196579,223.287964 
	C170.196579,225.836472 170.196579,229.280121 170.196579,232.977127 
	C173.226807,232.442429 176.255081,231.990921 174.544434,236.999329 
	C173.029648,236.999329 171.387451,236.999329 169.311630,236.996826 
z"/>
<path fill="#006EB9" opacity="1.000000" stroke="none" 
	d="
M112.999725,144.829407 
	C112.581612,149.920258 109.434593,151.230560 105.463860,150.920212 
	C101.685791,150.624924 99.717606,147.312149 99.966599,143.032425 
	C100.237564,138.375214 104.103302,137.356201 107.084877,137.335129 
	C110.823563,137.308716 113.949875,139.604324 112.999725,144.829407 
z"/>
<path fill="#006EB9" opacity="1.000000" stroke="none" 
	d="
M272.996765,137.083572 
	C275.581696,138.816528 278.559601,140.127655 279.779022,142.387589 
	C281.382355,145.359024 278.090546,150.081589 274.339813,150.803421 
	C270.351624,151.570984 267.606110,149.284973 266.453003,145.791092 
	C265.192932,141.973190 266.922546,139.190170 270.874054,137.957260 
	C271.483307,137.767166 272.031097,137.379929 272.996765,137.083572 
z"/>
<path fill="#006EB9" opacity="1.000000" stroke="none" 
	d="
M572.000000,231.855713 
	C572.000000,227.082916 572.000000,222.791122 572.000000,218.647873 
	C575.169800,218.078293 578.047119,217.149597 580.893921,217.235046 
	C582.187195,217.273865 583.420227,219.321259 585.744080,221.416336 
	C573.427856,222.604706 578.234131,231.050354 576.673218,236.729370 
	C575.277771,236.729370 573.888794,236.729370 572.211975,236.729370 
	C572.139954,235.237274 572.069946,233.786987 572.000000,231.855713 
z"/>
<path fill="#006EB9" opacity="1.000000" stroke="none" 
	d="
M327.000000,223.176468 
	C327.000000,221.234268 327.000000,219.766281 327.000000,218.708603 
	C330.326294,218.098557 333.199310,217.412628 336.111237,217.134583 
	C336.983978,217.051239 338.534515,217.943817 338.745392,218.682938 
	C338.980896,219.508301 338.125366,221.506927 337.607727,221.556198 
	C329.532684,222.324799 332.580841,228.483856 332.021698,232.845917 
	C331.877289,233.972626 331.999969,235.133591 331.999969,236.639359 
	C330.452240,236.796600 329.058838,236.938156 327.000000,237.147339 
	C327.000000,232.469254 327.000000,228.059982 327.000000,223.176468 
z"/>
<path fill="#006EB9" opacity="1.000000" stroke="none" 
	d="
M360.953278,235.647629 
	C359.469849,236.466125 358.023193,236.818558 356.231201,237.255127 
	C356.231201,230.569366 356.231201,224.517166 356.231201,218.235367 
	C357.782227,218.235367 359.169098,218.235367 360.990051,218.235367 
	C360.990051,223.988419 360.990051,229.584991 360.953278,235.647629 
z"/>
<path fill="#006EB9" opacity="1.000000" stroke="none" 
	d="
M286.000000,229.926575 
	C286.000000,232.380676 286.000000,234.350723 286.000000,236.674164 
	C284.410950,236.813019 283.020782,236.934494 281.304199,237.084503 
	C281.304199,230.777435 281.304199,224.725784 281.304199,218.290604 
	C282.596252,218.183136 283.984528,218.067642 286.000000,217.899994 
	C286.000000,221.934891 286.000000,225.688690 286.000000,229.926575 
z"/>
<path fill="#006EB9" opacity="1.000000" stroke="none" 
	d="
M281.009521,213.000900 
	C282.321259,211.746353 283.564392,210.695984 284.998810,210.209091 
	C285.310852,210.103165 286.839417,212.014908 286.839935,212.997894 
	C286.840485,213.981003 285.313782,215.894638 285.002045,215.789108 
	C283.566895,215.303253 282.322418,214.254257 281.009521,213.000900 
z"/>
<path fill="#006EB9" opacity="1.000000" stroke="none" 
	d="
M361.195068,215.275696 
	C359.290863,215.051010 357.586426,214.683212 356.138580,213.862701 
	C355.894287,213.724228 356.440674,211.318726 357.209869,210.546494 
	C357.798492,209.955551 360.095673,209.904633 360.279938,210.279190 
	C360.978729,211.699432 361.126984,213.390549 361.195068,215.275696 
z"/>
<path fill="#FFFFFF" opacity="1.000000" stroke="none" 
	d="
M388.000000,107.000000 
	C373.871216,107.000000 360.242432,107.000000 346.307739,107.000000 
	C346.307739,99.338417 346.307739,91.948853 346.307739,84.221634 
	C347.759766,84.147453 349.202728,84.010544 350.645752,84.009529 
	C370.625122,83.995438 390.604492,83.992844 410.583862,84.004158 
	C416.959534,84.007774 422.846710,89.592987 422.799347,95.542404 
	C422.751556,101.546448 416.913696,106.985909 410.477325,106.997070 
	C403.151581,107.009773 395.825775,107.000000 388.000000,107.000000 
z"/>
<path fill="#FFFFFF" opacity="1.000000" stroke="none" 
	d="
M386.999756,52.847389 
	C386.645294,49.949112 387.387177,48.859219 390.168243,48.936646 
	C397.137085,49.130657 404.116913,48.898727 411.088593,49.031822 
	C416.909393,49.142948 422.986694,54.976971 422.914062,60.110413 
	C422.833252,65.818588 417.174286,70.977478 410.896210,70.992989 
	C400.481171,71.018723 390.065979,70.999992 378.686890,70.999992 
	C384.258820,65.820061 386.259918,59.825459 386.999756,52.847389 
z"/>
<path fill="#FFFFFF" opacity="1.000000" stroke="none" 
	d="
M351.109192,49.000008 
	C355.208618,49.000000 358.823212,49.000000 362.371948,49.000000 
	C364.745514,62.187260 357.753906,71.536964 346.220673,70.692261 
	C346.148987,69.759239 346.013611,68.793747 346.010529,67.827835 
	C345.990906,61.734280 346.000580,55.640629 346.000580,49.236450 
	C347.754883,49.146744 349.189606,49.073376 351.109192,49.000008 
z"/>
<path fill="#FFFFFF" opacity="1.000000" stroke="none" 
	d="
M471.739105,169.922073 
	C474.993500,171.487335 475.753998,173.896332 474.645996,176.686234 
	C473.484894,179.609894 470.670197,180.264893 463.302582,179.742889 
	C463.302582,176.371506 463.302582,172.970932 463.302582,168.774750 
	C466.028748,169.129196 468.682526,169.474228 471.739105,169.922073 
z"/>
<path fill="#FFFFFF" opacity="1.000000" stroke="none" 
	d="
M472.600464,157.881134 
	C469.521667,159.384521 466.709503,160.604050 463.210083,162.121628 
	C463.210083,157.161575 463.210083,153.747330 463.210083,150.351822 
	C470.647278,149.711670 474.026184,152.309601 472.600464,157.881134 
z"/>
<path fill="#FFFFFF" opacity="1.000000" stroke="none" 
	d="
M384.832642,179.385742 
	C383.749786,180.382736 382.734558,181.565430 381.853455,181.472778 
	C380.306458,181.310120 378.390778,180.719238 377.522156,179.609222 
	C377.049225,179.004852 378.026886,176.440063 379.038910,175.695709 
	C380.496674,174.623489 382.581207,174.403412 384.960663,173.638977 
	C384.960663,175.756683 384.960663,177.376923 384.832642,179.385742 
z"/>
<path fill="#FFFFFF" opacity="1.000000" stroke="none" 
	d="
M665.998169,174.560532 
	C665.195618,178.353241 664.052795,181.677292 659.721741,180.912964 
	C655.753784,180.212708 654.975769,176.930237 654.998291,173.410660 
	C655.009949,171.587936 654.724548,169.710663 655.067627,167.954605 
	C655.636780,165.041336 656.503723,162.078369 660.360413,162.012451 
	C664.509521,161.941513 665.398193,165.060394 665.935242,168.170517 
	C666.268677,170.101593 665.998840,172.136841 665.998169,174.560532 
z"/>
<path fill="#FFFFFF" opacity="1.000000" stroke="none" 
	d="
M596.873840,175.647903 
	C598.843994,174.876541 600.539978,174.390137 602.235901,173.903732 
	C602.694153,174.147736 603.152405,174.391739 603.610657,174.635757 
	C602.637817,176.775558 601.986328,179.185867 600.528564,180.917450 
	C599.972412,181.578033 597.568176,180.682831 596.006226,180.496658 
	C596.204041,178.975388 596.401794,177.454117 596.873840,175.647903 
z"/>
<path fill="#FFFFFF" opacity="1.000000" stroke="none" 
	d="
M179.027557,163.157288 
	C179.441345,164.547501 179.771637,165.536026 180.205246,166.833801 
	C176.569290,166.833801 173.467834,166.833801 170.343506,166.833801 
	C171.851074,160.775909 173.828278,159.856430 179.027557,163.157288 
z"/>
<path fill="#FFFFFF" opacity="1.000000" stroke="none" 
	d="
M564.777588,228.536987 
	C562.837585,230.155197 561.067627,231.417191 559.297729,232.679214 
	C558.546082,229.830811 557.544739,227.006943 557.260315,224.112595 
	C557.205444,223.554779 560.966064,221.837555 561.250671,222.161682 
	C562.781799,223.905670 563.771179,226.125305 564.777588,228.536987 
z"/>
<path fill="#FFFFFF" opacity="1.000000" stroke="none" 
	d="
M418.216675,232.272812 
	C414.895538,233.773560 413.355530,231.873245 413.131256,229.462357 
	C412.915985,227.148697 413.519897,224.619003 414.404755,222.445129 
	C414.615356,221.927704 418.012726,221.825897 418.819244,222.643173 
	C419.972900,223.812164 420.543030,226.011475 420.510223,227.754776 
	C420.483368,229.182144 419.211334,230.586090 418.216675,232.272812 
z"/>
</svg>